<svg width="111" height="51" viewBox="0 0 111 51" fill="none" xmlns="http://www.w3.org/2000/svg">
<path d="M28 44C28 46.7614 25.7614 49 23 49C20.2386 49 18 46.7614 18 44C18 44 20.2386 44 23 44C25.7614 44 28 44 28 44Z" fill="black"/>
<path fill-rule="evenodd" clip-rule="evenodd" d="M2 0C0.895431 0 0 0.895432 0 2V42.3478C0 43.4524 0.895432 44.3478 2 44.3478H42.3478C43.4524 44.3478 44.3478 43.4524 44.3478 42.3478V2C44.3478 0.895431 43.4524 0 42.3478 0H2ZM4 3C3.44772 3 3 3.44772 3 4V8C3 8.55228 3.44772 9 4 9H8C8.55228 9 9 8.55228 9 8V4C9 3.44772 8.55228 3 8 3H4ZM11 4C11 3.44772 11.4477 3 12 3H16C16.5523 3 17 3.44772 17 4V8C17 8.55228 16.5523 9 16 9H12C11.4477 9 11 8.55228 11 8V4ZM20 3C19.4477 3 19 3.44772 19 4V8C19 8.55228 19.4477 9 20 9H24C24.5523 9 25 8.55228 25 8V4C25 3.44772 24.5523 3 24 3H20ZM27 4C27 3.44772 27.4477 3 28 3H32C32.5523 3 33 3.44772 33 4V8C33 8.55228 32.5523 9 32 9H28C27.4477 9 27 8.55228 27 8V4ZM36 3C35.4477 3 35 3.44772 35 4V8C35 8.55228 35.4477 9 36 9H40C40.5523 9 41 8.55228 41 8V4C41 3.44772 40.5523 3 40 3H36ZM3 12C3 11.4477 3.44772 11 4 11H8C8.55228 11 9 11.4477 9 12V16C9 16.5523 8.55228 17 8 17H4C3.44772 17 3 16.5523 3 16V12ZM12 11C11.4477 11 11 11.4477 11 12V16C11 16.5523 11.4477 17 12 17H16C16.5523 17 17 16.5523 17 16V12C17 11.4477 16.5523 11 16 11H12ZM19 12C19 11.4477 19.4477 11 20 11H24C24.5523 11 25 11.4477 25 12V16C25 16.5523 24.5523 17 24 17H20C19.4477 17 19 16.5523 19 16V12ZM28 11C27.4477 11 27 11.4477 27 12V16C27 16.5523 27.4477 17 28 17H32C32.5523 17 33 16.5523 33 16V12C33 11.4477 32.5523 11 32 11H28ZM35 12C35 11.4477 35.4477 11 36 11H40C40.5523 11 41 11.4477 41 12V16C41 16.5523 40.5523 17 40 17H36C35.4477 17 35 16.5523 35 16V12ZM4 19C3.44772 19 3 19.4477 3 20V24C3 24.5523 3.44772 25 4 25H8C8.55228 25 9 24.5523 9 24V20C9 19.4477 8.55228 19 8 19H4ZM11 20C11 19.4477 11.4477 19 12 19H16C16.5523 19 17 19.4477 17 20V24C17 24.5523 16.5523 25 16 25H12C11.4477 25 11 24.5523 11 24V20ZM36 19C35.4477 19 35 19.4477 35 20V24C35 24.5523 35.4477 25 36 25H40C40.5523 25 41 24.5523 41 24V20C41 19.4477 40.5523 19 40 19H36ZM19 20C19 19.4477 19.4477 19 20 19H24C24.5523 19 25 19.4477 25 20V24C25 24.5523 24.5523 25 24 25H20C19.4477 25 19 24.5523 19 24V20ZM28 19C27.4477 19 27 19.4477 27 20V24C27 24.5523 27.4477 25 28 25H32C32.5523 25 33 24.5523 33 24V20C33 19.4477 32.5523 19 32 19H28ZM3 28C3 27.4477 3.44772 27 4 27H8C8.55228 27 9 27.4477 9 28V32C9 32.5523 8.55228 33 8 33H4C3.44772 33 3 32.5523 3 32V28ZM12 27C11.4477 27 11 27.4477 11 28V32C11 32.5523 11.4477 33 12 33H16C16.5523 33 17 32.5523 17 32V28C17 27.4477 16.5523 27 16 27H12ZM19 28C19 27.4477 19.4477 27 20 27H24C24.5523 27 25 27.4477 25 28V32C25 32.5523 24.5523 33 24 33H20C19.4477 33 19 32.5523 19 32V28ZM28 27C27.4477 27 27 27.4477 27 28V32C27 32.5523 27.4477 33 28 33H32C32.5523 33 33 32.5523 33 32V28C33 27.4477 32.5523 27 32 27H28ZM35 28C35 27.4477 35.4477 27 36 27H40C40.5523 27 41 27.4477 41 28V32C41 32.5523 40.5523 33 40 33H36C35.4477 33 35 32.5523 35 32V28ZM4 35C3.44772 35 3 35.4477 3 36V40C3 40.5523 3.44772 41 4 41H8C8.55228 41 9 40.5523 9 40V36C9 35.4477 8.55228 35 8 35H4ZM11 36C11 35.4477 11.4477 35 12 35H16C16.5523 35 17 35.4477 17 36V40C17 40.5523 16.5523 41 16 41H12C11.4477 41 11 40.5523 11 40V36ZM20 35C19.4477 35 19 35.4477 19 36V40C19 40.5523 19.4477 41 20 41H24C24.5523 41 25 40.5523 25 40V36C25 35.4477 24.5523 35 24 35H20ZM27 36C27 35.4477 27.4477 35 28 35H32C32.5523 35 33 35.4477 33 36V40C33 40.5523 32.5523 41 32 41H28C27.4477 41 27 40.5523 27 40V36ZM36 35C35.4477 35 35 35.4477 35 36V40C35 40.5523 35.4477 41 36 41H40C40.5523 41 41 40.5523 41 40V36C41 35.4477 40.5523 35 40 35H36Z" fill="black" style="mix-blend-mode:exclusion"/>
<path fill-rule="evenodd" clip-rule="evenodd" d="M111 0H67V51H111V0ZM71 6C70.4477 6 70 6.44772 70 7V11C70 11.5523 70.4477 12 71 12H75C75.5523 12 76 11.5523 76 11V7C76 6.44772 75.5523 6 75 6H71ZM78 7C78 6.44772 78.4477 6 79 6H83C83.5523 6 84 6.44772 84 7V11C84 11.5523 83.5523 12 83 12H79C78.4477 12 78 11.5523 78 11V7ZM87 6C86.4477 6 86 6.44772 86 7V11C86 11.5523 86.4477 12 87 12H91C91.5523 12 92 11.5523 92 11V7C92 6.44772 91.5523 6 91 6H87ZM94 7C94 6.44772 94.4477 6 95 6H99C99.5523 6 100 6.44772 100 7V11C100 11.5523 99.5523 12 99 12H95C94.4477 12 94 11.5523 94 11V7ZM103 6C102.448 6 102 6.44772 102 7V11C102 11.5523 102.448 12 103 12H107C107.552 12 108 11.5523 108 11V7C108 6.44772 107.552 6 107 6H103ZM70 15C70 14.4477 70.4477 14 71 14H75C75.5523 14 76 14.4477 76 15V19C76 19.5523 75.5523 20 75 20H71C70.4477 20 70 19.5523 70 19V15ZM79 14C78.4477 14 78 14.4477 78 15V19C78 19.5523 78.4477 20 79 20H83C83.5523 20 84 19.5523 84 19V15C84 14.4477 83.5523 14 83 14H79ZM86 15C86 14.4477 86.4477 14 87 14H91C91.5523 14 92 14.4477 92 15V19C92 19.5523 91.5523 20 91 20H87C86.4477 20 86 19.5523 86 19V15ZM95 14C94.4477 14 94 14.4477 94 15V19C94 19.5523 94.4477 20 95 20H99C99.5523 20 100 19.5523 100 19V15C100 14.4477 99.5523 14 99 14H95ZM102 15C102 14.4477 102.448 14 103 14H107C107.552 14 108 14.4477 108 15V19C108 19.5523 107.552 20 107 20H103C102.448 20 102 19.5523 102 19V15ZM71 22C70.4477 22 70 22.4477 70 23V27C70 27.5523 70.4477 28 71 28H75C75.5523 28 76 27.5523 76 27V23C76 22.4477 75.5523 22 75 22H71ZM78 23C78 22.4477 78.4477 22 79 22H83C83.5523 22 84 22.4477 84 23V27C84 27.5523 83.5523 28 83 28H79C78.4477 28 78 27.5523 78 27V23ZM87 22C86.4477 22 86 22.4477 86 23V27C86 27.5523 86.4477 28 87 28H91C91.5523 28 92 27.5523 92 27V23C92 22.4477 91.5523 22 91 22H87ZM94 23C94 22.4477 94.4477 22 95 22H99C99.5523 22 100 22.4477 100 23V27C100 27.5523 99.5523 28 99 28H95C94.4477 28 94 27.5523 94 27V23ZM103 22C102.448 22 102 22.4477 102 23V27C102 27.5523 102.448 28 103 28H107C107.552 28 108 27.5523 108 27V23C108 22.4477 107.552 22 107 22H103ZM70 31C70 30.4477 70.4477 30 71 30H75C75.5523 30 76 30.4477 76 31V35C76 35.5523 75.5523 36 75 36H71C70.4477 36 70 35.5523 70 35V31ZM79 30C78.4477 30 78 30.4477 78 31V35C78 35.5523 78.4477 36 79 36H83C83.5523 36 84 35.5523 84 35V31C84 30.4477 83.5523 30 83 30H79ZM86 31C86 30.4477 86.4477 30 87 30H91C91.5523 30 92 30.4477 92 31V35C92 35.5523 91.5523 36 91 36H87C86.4477 36 86 35.5523 86 35V31ZM95 30C94.4477 30 94 30.4477 94 31V35C94 35.5523 94.4477 36 95 36H99C99.5523 36 100 35.5523 100 35V31C100 30.4477 99.5523 30 99 30H95ZM102 31C102 30.4477 102.448 30 103 30H107C107.552 30 108 30.4477 108 31V35C108 35.5523 107.552 36 107 36H103C102.448 36 102 35.5523 102 35V31ZM71 38C70.4477 38 70 38.4477 70 39V43C70 43.5523 70.4477 44 71 44H75C75.5523 44 76 43.5523 76 43V39C76 38.4477 75.5523 38 75 38H71ZM78 39C78 38.4477 78.4477 38 79 38H83C83.5523 38 84 38.4477 84 39V43C84 43.5523 83.5523 44 83 44H79C78.4477 44 78 43.5523 78 43V39ZM87 38C86.4477 38 86 38.4477 86 39V43C86 43.5523 86.4477 44 87 44H91C91.5523 44 92 43.5523 92 43V39C92 38.4477 91.5523 38 91 38H87ZM94 39C94 38.4477 94.4477 38 95 38H99C99.5523 38 100 38.4477 100 39V43C100 43.5523 99.5523 44 99 44H95C94.4477 44 94 43.5523 94 43V39ZM103 38C102.448 38 102 38.4477 102 39V43C102 43.5523 102.448 44 103 44H107C107.552 44 108 43.5523 108 43V39C108 38.4477 107.552 38 107 38H103Z" fill="black"/>
<path d="M64.0607 28.0607C64.6464 27.4749 64.6464 26.5251 64.0607 25.9393L54.5147 16.3934C53.9289 15.8076 52.9792 15.8076 52.3934 16.3934C51.8076 16.9792 51.8076 17.9289 52.3934 18.5147L60.8787 27L52.3934 35.4853C51.8076 36.0711 51.8076 37.0208 52.3934 37.6066C52.9792 38.1924 53.9289 38.1924 54.5147 37.6066L64.0607 28.0607ZM47 28.5H63V25.5H47V28.5Z" fill="black"/>
</svg>
