<svg width="576" height="472" viewBox="0 0 576 472" fill="none" xmlns="http://www.w3.org/2000/svg">
<path d="M79.4548 438.5L56.4548 471L258.455 472L270.955 436L284.955 422.5L305.455 411.5L322.455 402L344.955 389.5L382.455 366.5L387.955 362L258.455 177.5L256.955 168L261.455 161L264.955 151.5L267.955 141L268.955 133.5C269.247 132.833 269.555 131.7 268.455 132.5L279.455 124.5L290.455 114L296.455 106.5L302.455 96L308.455 80.5L311.955 63.5V48L309.455 34.5L305.955 27L297.455 16.5L292.455 13.5L288.455 12.5L283.955 13.5L279.955 16.5L275.955 22.5L272.455 31L266.955 41.5L262.955 47.5L254.955 56.5L244.955 66L234.455 75L229.455 80.5L221.455 89L214.955 98L201.455 120L181.455 155.5L174.455 170.5L172.455 177.5L169.955 190.5L168.955 206.5L169.955 218L173.955 251.5L174.955 273.5L173.955 287L171.455 297.5L168.955 305L163.955 314.5L157.455 324L139.455 350L117.455 383L79.4548 438.5Z" fill="white"/>
<path d="M507.311 385.449C507.114 386.842 506.58 388.167 505.758 389.31C504.935 390.452 503.846 391.378 502.586 392.009C501.879 392.261 501.135 392.395 500.384 392.404H499.744C498.6 392.318 497.466 392.129 496.356 391.84L492.798 390.994C490.445 390.392 488.111 389.735 485.776 389.114C479.922 387.404 474.124 385.543 468.308 383.72C399.933 362.438 328.878 350.958 257.271 349.623C242.099 349.341 226.701 349.492 212.094 345.62C211.209 345.375 210.324 345.131 209.439 344.811C209.165 344.738 208.895 344.65 208.63 344.548C205.685 343.588 202.959 342.055 200.611 340.037C210.023 340.526 219.68 340.037 229.186 339.811C300.744 337.79 372.227 345.91 441.502 363.927C450.914 366.389 460.326 369.04 469.889 370.825C471.928 371.385 474.087 371.34 476.101 370.694C477.331 370.013 478.375 369.042 479.142 367.866C479.91 366.69 480.378 365.344 480.506 363.946C482.388 352.913 473.936 343.157 468.534 333.346C461.625 320.79 459.329 306.279 457.86 291.994C454.66 260.867 454.905 229.458 451.761 198.312C449.503 175.174 445.041 151.848 436.326 130.345C431.766 121.89 425.603 114.401 418.179 108.297C416.976 115.843 416.748 123.512 417.502 131.115C416.846 131.494 416.068 131.6 415.335 131.41C414.603 131.22 413.974 130.75 413.586 130.1C412.875 128.748 412.55 127.227 412.645 125.702C412.298 118.627 412.543 111.535 413.379 104.5C406.24 99.5045 398.682 95.1338 390.79 91.4364C381.2 86.6723 371.095 83.0208 360.672 80.5533C354.14 79.0872 342.845 76.3429 330.779 78.8804C336.612 76.0573 342.743 73.8948 349.057 72.4333C351.523 71.8506 353.952 71.3431 356.361 70.9296H356.662C359.392 70.4409 362.159 70.0837 364.926 69.8206C373.208 68.9704 381.565 69.1852 389.793 70.4597C391.073 70.6664 392.315 70.892 393.557 71.1363C400.312 72.5398 406.877 74.7354 413.116 77.6775C414.791 78.4669 416.466 79.3127 418.123 80.1962L419.064 80.7413C419.685 81.0608 420.288 81.3991 420.946 81.7751C422.227 82.4893 423.469 83.2788 424.711 84.087C424.917 84.1941 425.112 84.3199 425.295 84.4629C426.048 84.9328 426.801 85.4403 427.535 85.9666C428.608 86.6997 429.643 87.4704 430.697 88.2598C431.111 88.5417 431.488 88.8425 431.902 89.162C432.034 89.2748 432.203 89.3876 432.335 89.5192C432.862 89.9139 433.352 90.3086 433.86 90.7221C433.927 90.7732 433.99 90.8298 434.048 90.8913C434.914 91.568 435.761 92.2822 436.589 93.0153C447.975 102.923 457.454 114.821 464.562 128.127C466.35 131.454 467.988 134.837 469.513 138.258C480.6 163.351 484.892 191.207 486.454 218.707C488.148 249.965 486.454 281.317 488.167 312.557C488.958 326.861 490.577 341.484 496.902 354.341C501.72 364.397 509.74 374.51 507.311 385.449Z" fill="#737AA5"/>
<path d="M506.823 385.341L506.819 385.36L506.816 385.379C506.63 386.692 506.127 387.941 505.352 389.018C504.582 390.086 503.566 390.954 502.39 391.548C501.744 391.775 501.065 391.895 500.38 391.904C500.38 391.904 500.379 391.904 500.378 391.904L499.763 391.904C498.655 391.82 497.557 391.636 496.482 391.356L496.471 391.353L492.925 390.51C492.923 390.51 492.921 390.509 492.919 390.509C491.604 390.162 490.299 389.811 488.996 389.46C487.969 389.183 486.942 388.907 485.912 388.633C481.269 387.276 476.662 385.825 472.047 384.372C470.852 383.995 469.655 383.618 468.457 383.243L468.456 383.242C400.036 361.947 328.935 350.459 257.281 349.123C255.802 349.096 254.321 349.072 252.841 349.049C239.108 348.832 225.345 348.614 212.225 345.137C211.338 344.892 210.472 344.653 209.609 344.341L209.589 344.334L209.569 344.328C209.311 344.259 209.058 344.177 208.809 344.081L208.797 344.077L208.785 344.073C206.384 343.29 204.132 342.118 202.119 340.608C209.08 340.893 216.165 340.684 223.192 340.477C225.2 340.418 227.203 340.359 229.198 340.311L229.2 340.311C300.71 338.291 372.147 346.405 441.376 364.411C442.992 364.834 444.609 365.262 446.228 365.691C454.018 367.756 461.847 369.831 469.777 371.313C471.904 371.893 474.154 371.843 476.254 371.17L476.3 371.155L476.343 371.131C477.644 370.411 478.749 369.384 479.561 368.139C480.37 366.9 480.864 365.484 481.002 364.011C481.962 358.347 480.268 353.04 477.698 347.962C476.411 345.419 474.897 342.919 473.374 340.452C473.173 340.126 472.971 339.801 472.77 339.476C471.447 337.337 470.138 335.222 468.972 333.104C462.116 320.643 459.825 306.221 458.358 291.942C456.759 276.395 456.021 260.775 455.289 245.137L455.271 244.739C454.545 229.238 453.819 213.72 452.259 198.264C449.997 175.098 445.529 151.721 436.79 130.158C433.797 122.724 430.236 115.531 426.139 108.643L426.139 108.643L426.133 108.633C424.251 105.627 422.361 102.625 420.298 99.7535L420.298 99.7527C418.939 97.8678 417.524 95.9838 416.072 94.1009L416.067 94.0949L416.062 94.089L415.121 92.9424L415.12 92.9415C414.063 91.6596 413.005 90.415 411.91 89.1701L411.909 89.1697C409.59 86.5395 407.152 84.0224 404.593 81.6187C400.642 77.8494 396.42 74.3757 391.961 71.2254C392.468 71.3184 392.973 71.4145 393.477 71.5137C400.192 72.9091 406.719 75.092 412.921 78.017L412.921 78.017C414.586 78.8014 416.251 79.6421 417.899 80.5206L418.832 81.0612L418.843 81.0675L418.854 81.0732C419.465 81.3874 420.06 81.7213 420.717 82.0966L420.722 82.099C421.986 82.8046 423.217 83.5863 424.457 84.3934L424.478 84.4066L424.499 84.4178C424.678 84.5106 424.847 84.6198 425.005 84.7438L425.026 84.7603L425.049 84.7744C425.792 85.2381 426.536 85.7395 427.262 86.2603L427.262 86.2604L427.272 86.2668C428.335 86.993 429.362 87.7576 430.416 88.5473L430.425 88.554L430.435 88.5604C430.761 88.7825 431.061 89.0155 431.392 89.2719C431.462 89.3262 431.533 89.3815 431.606 89.438C431.664 89.487 431.729 89.5372 431.784 89.5796C431.8 89.5922 431.816 89.6041 431.83 89.615C431.903 89.6717 431.958 89.7173 432.001 89.7603L432.026 89.7853L432.054 89.8066C432.573 90.1949 433.055 90.5841 433.563 90.9972L433.57 91.0026L433.576 91.0078C433.622 91.0421 433.664 91.0801 433.703 91.1215L433.729 91.1491L433.759 91.1725C434.615 91.8416 435.454 92.5491 436.277 93.277L436.279 93.2792C447.623 103.182 457.059 115.071 464.12 128.362L464.121 128.364C465.903 131.678 467.535 135.05 469.056 138.462C480.108 163.476 484.394 191.264 485.955 218.735C486.799 234.307 486.801 249.905 486.804 265.516V265.639C486.806 281.287 486.811 296.948 487.668 312.584C488.459 326.895 490.08 341.605 496.452 354.559C497.543 356.837 498.798 359.117 500.05 361.394C500.188 361.645 500.326 361.896 500.464 362.146C501.856 364.68 503.225 367.212 504.368 369.768C506.653 374.88 508.003 380.024 506.823 385.341Z" fill="#737AA5" stroke="black"/>
<path d="M494.676 369.523L494.679 369.503C495.641 364.037 493.98 358.858 491.319 353.76C489.989 351.212 488.417 348.699 486.811 346.191C486.562 345.801 486.312 345.411 486.062 345.021C484.704 342.908 483.347 340.794 482.129 338.68L482.127 338.677C474.808 325.741 472.386 310.858 470.841 296.324L471.338 296.271L470.841 296.324C469.157 280.44 468.379 264.487 467.61 248.548L467.591 248.154C466.828 232.342 466.065 216.543 464.427 200.813C461.957 177.221 457.374 153.501 448.262 131.647C443.651 123.383 437.478 116.032 430.065 109.976C428.906 117.35 428.694 124.835 429.434 132.261L429.467 132.586L429.181 132.746C428.38 133.195 427.431 133.32 426.537 133.095C425.643 132.871 424.872 132.313 424.394 131.538L424.387 131.526L424.38 131.514C423.593 130.061 423.229 128.427 423.329 126.788C422.97 119.657 423.217 112.509 424.069 105.418C416.659 100.412 408.821 96.0274 400.641 92.3117L400.631 92.3071L400.631 92.3069C390.58 87.4665 379.989 83.7563 369.066 81.2489C365.644 80.5043 359.283 79.2966 352.198 78.5974C345.125 77.8993 337.373 77.7126 331.112 78.9783C326.663 81.0565 318.998 86.2464 315.279 89.3809C311.335 92.7706 307.888 96.4352 304.462 100.173C304.013 100.662 303.565 101.153 303.115 101.645C300.14 104.902 297.132 108.194 293.799 111.362L293.799 111.363C283.321 121.287 276.793 132.301 271.535 144.138C268.905 150.059 266.594 156.182 264.264 162.481C263.964 163.29 263.665 164.103 263.364 164.918C261.325 170.442 259.238 176.096 256.885 181.845M494.676 369.523L256.422 181.656M494.676 369.523L494.674 369.543C494.548 370.884 494.085 372.177 493.323 373.307C492.571 374.425 491.549 375.351 490.345 376.006M494.676 369.523L495.172 369.59M256.885 181.845L256.422 181.656M256.885 181.845C256.885 181.845 256.885 181.845 256.885 181.845L256.422 181.656M256.885 181.845C249.867 199.03 244.315 216.717 238.944 234.49C238.162 237.075 237.385 239.662 236.607 242.249C232.04 257.445 227.468 272.658 222.093 287.605M256.422 181.656C248.372 201.368 242.251 221.735 236.128 242.107C231.561 257.304 226.992 272.503 221.622 287.437M222.093 287.605C222.093 287.605 222.093 287.605 222.093 287.605L221.622 287.437M222.093 287.605C218.488 297.728 214.409 307.873 207.786 316.487L207.785 316.487C202.224 323.698 197.5 331.108 200.425 339.33M222.093 287.605C222.093 287.605 222.093 287.606 222.092 287.606L221.622 287.437M221.622 287.437L200.425 339.33M200.425 339.33C200.425 339.329 200.425 339.329 200.424 339.328L199.955 339.5M200.425 339.33L207.389 316.182C201.847 323.368 196.926 330.992 199.955 339.5M200.425 339.33C200.566 339.714 200.898 340.146 201.44 340.609C201.976 341.068 202.686 341.53 203.528 341.982C205.202 342.881 207.349 343.714 209.569 344.4C214.537 345.2 217.371 345.471 220.175 345.41C222.408 345.361 224.625 345.102 227.896 344.721C228.766 344.619 229.711 344.509 230.751 344.392L230.772 344.389L230.793 344.389C306.12 342.351 381.364 350.666 454.278 369.086L454.279 369.086C455.565 369.412 456.849 369.739 458.133 370.065C466.758 372.261 475.347 374.447 484.101 376.112L484.118 376.116L484.136 376.12C486.174 376.663 488.331 376.623 490.345 376.006M200.425 339.33C200.425 339.331 200.426 339.332 200.426 339.332L199.955 339.5M199.955 339.5C200.685 341.496 204.955 343.5 209.455 344.888C218.408 346.331 220.547 346.082 227.967 345.216C228.835 345.114 229.775 345.005 230.807 344.888C306.088 342.852 381.286 351.162 454.156 369.571L484.007 376.604C486.152 377.175 488.422 377.128 490.54 376.469M400.848 91.8565C390.762 86.9994 380.136 83.2766 369.175 80.7609C362.306 79.2662 343.644 75.913 330.955 78.5C326.462 80.5853 318.712 85.833 314.955 89C310.465 92.8588 306.62 97.0671 302.745 101.309C299.768 104.567 296.774 107.845 293.455 111L400.848 91.8565ZM400.848 91.8565C409.147 95.6261 417.094 100.082 424.602 105.175L400.848 91.8565ZM495.172 369.59C495.038 371.015 494.545 372.387 493.738 373.586C492.931 374.786 491.833 375.775 490.54 376.469M495.172 369.59C496.733 360.715 491.555 352.651 486.481 344.749C485.124 342.635 483.774 340.533 482.562 338.43L495.172 369.59ZM490.54 376.469L490.391 375.992C490.376 375.997 490.361 376.001 490.345 376.006M490.54 376.469L490.303 376.029C490.317 376.021 490.331 376.014 490.345 376.006M424.82 131.275C425.228 131.937 425.888 132.417 426.659 132.61C427.43 132.804 428.248 132.696 428.937 132.31C428.183 124.746 428.411 117.12 429.616 109.612L424.82 131.275Z" fill="#E2E4F3" stroke="black"/>
<path d="M469.475 138.258C467.178 139.611 439.356 136.378 438.208 133.991C437.624 132.751 437.003 131.529 436.326 130.345C431.766 121.89 425.603 114.401 418.179 108.297C416.598 106.962 414.979 105.703 413.323 104.537C406.183 99.5421 398.626 95.1713 390.734 91.4739C381.143 86.7099 371.038 83.0584 360.615 80.5908C354.083 79.1247 342.789 76.3805 330.723 78.918C335.359 75.9212 340.355 73.5213 345.594 71.7753L347.589 71.2302C349.735 70.6664 351.881 70.0837 354.046 69.5574C356.21 69.0311 358.168 68.5236 360.239 68.0725C371.176 65.6289 382.263 64.3132 393.181 66.362C399.985 67.5912 406.716 69.1977 413.341 71.1739C416.523 72.1701 419.572 73.2603 422.565 74.5196C424.956 75.5534 427.29 76.6812 429.568 77.9217C432.617 79.5889 435.543 81.4734 438.321 83.5607C439.695 84.632 441.088 85.7598 442.425 86.944C442.59 87.0782 442.748 87.2226 442.895 87.3763C443.987 88.3349 445.079 89.3687 446.152 90.4589L446.246 90.5717C450.651 95.2896 469.475 138.258 469.475 138.258Z" fill="#737AA5"/>
<path d="M315.36 7.69762C316.873 9.98483 318.879 11.9518 321.076 13.8291C322.163 14.7583 323.291 15.6603 324.426 16.5682C324.535 16.656 324.645 16.7439 324.755 16.8318C325.998 17.8268 327.245 18.8318 328.436 19.8787C342.077 31.8491 346.831 47.7045 351.252 63.5397L351.252 63.5403C351.784 65.4553 352.487 66.8537 353.344 67.9214C354.199 68.9871 355.225 69.7462 356.436 70.3588C357.655 70.9752 359.053 71.44 360.656 71.9206C361.06 72.0418 361.477 72.1641 361.907 72.29C363.168 72.6597 364.536 73.0605 365.991 73.5578L365.992 73.5579C373.092 75.9913 379.87 79.1544 386.61 82.3001C388.957 83.3955 391.3 84.4888 393.65 85.5484L393.651 85.5487C396.807 86.9776 401.401 87.9481 406.568 88.5473C411.726 89.1452 417.414 89.3691 422.735 89.3246C428.057 89.2801 433.001 88.9672 436.667 88.4952C438.502 88.2589 440.002 87.9845 441.065 87.6889C441.599 87.5405 442.002 87.3921 442.278 87.2502C442.521 87.125 442.594 87.0402 442.61 87.0218C442.614 87.017 442.614 87.0167 442.612 87.0214L442.613 87.0182C444.675 81.3209 448.592 76.4794 453.736 73.2688C453.736 73.2687 453.737 73.2686 453.737 73.2684L454.002 73.6926C462.446 68.357 472.901 67.6624 483.455 66.9612C489.558 66.5557 495.694 66.148 501.495 64.8395L315.36 7.69762ZM315.36 7.69762C315.717 7.62035 316.075 7.54303 316.433 7.46569C332.411 4.0122 348.523 0.529687 364.907 0.529687H364.915L364.923 0.529446C371.438 0.326893 377.944 1.17037 384.191 3.02767L384.209 3.03302L384.228 3.03701C385.05 3.21572 385.827 3.56444 386.506 4.06069C387.168 4.54414 387.724 5.15718 388.141 5.86212L315.36 7.69762Z" fill="#F3F4FB" stroke="black"/>
<path d="M500.669 51.0768L500.67 51.0773C501.071 51.2764 501.479 51.4726 501.888 51.6695C503.295 52.3458 504.717 53.0294 505.91 53.8594C507.441 54.9237 508.477 56.1507 508.601 57.7727C508.723 59.3697 507.822 60.7025 506.319 61.7805C504.815 62.8584 502.786 63.6181 500.876 64.0511C495.118 65.3499 489.043 65.7513 482.954 66.1536C480.719 66.3013 478.482 66.4492 476.258 66.6416C468.017 67.3545 459.998 68.6812 453.227 72.9686C448.089 76.1765 444.173 81.0097 442.105 86.698L442.104 86.7029C442.105 86.6989 442.105 86.6993 442.101 86.7037C442.086 86.722 442.012 86.8093 441.764 86.9391C441.488 87.084 441.082 87.2363 440.547 87.3889C439.48 87.6929 437.973 87.9769 436.131 88.2199C432.605 88.6848 427.903 88.9925 422.82 89.0175C422.88 88.8361 422.944 88.6563 423.013 88.4782C426.54 79.3867 435.523 73.0911 443.685 68.0467C460.235 57.8472 478.339 48.8456 497.483 48.7803C498.413 49.7122 499.489 50.4879 500.669 51.0768Z" fill="#737AA5" stroke="black"/>
<path d="M350.937 36.0723L350.942 36.0873L350.948 36.1019C352.506 39.8951 354.304 43.5861 356.329 47.1527C359.067 53.2722 360.715 59.8205 361.2 66.5035C359.933 66.8197 358.585 66.5901 357.338 65.9727C355.975 65.2977 354.766 64.1733 353.976 62.8694C352.564 60.0188 351.813 56.8871 351.779 53.7067L351.778 53.6868L351.777 53.6669C350.8 42.8791 349.179 31.0478 341.512 23.0853C341.321 22.8843 341.127 22.6863 340.934 22.489C340.368 21.9119 339.809 21.3411 339.341 20.7213C338.721 19.9011 338.319 19.0667 338.319 18.1493H338.319L338.319 18.1429C338.316 17.8543 338.35 17.5673 338.422 17.2892C340.418 18.1326 342.261 19.3015 343.875 20.749C346.475 23.3556 348.582 26.4093 350.094 29.763C349.964 31.9003 350.25 34.0431 350.937 36.0723Z" fill="#737AA5" stroke="black"/>
<path d="M435.462 40.6143C434.656 40.9915 433.925 41.517 433.309 42.1651L433.309 42.165L433.3 42.1746C431.507 44.1629 430.444 47.2269 429.667 50.3123C429.286 51.8216 428.969 53.3591 428.67 54.8054L428.645 54.9294C428.338 56.4177 428.05 57.7997 427.73 58.9754L427.728 58.9851L427.725 58.9949C426.292 65.2447 423.97 71.2574 420.831 76.85L420.821 76.8665L420.813 76.8837C420.439 77.6873 419.875 78.388 419.169 78.9251C418.479 79.4495 417.675 79.8025 416.822 79.9555C416.032 79.8782 415.286 79.5565 414.687 79.0347C414.076 78.5014 413.651 77.7871 413.474 76.9962C413.162 75.261 413.273 73.476 413.8 71.7932L413.805 71.7774L413.809 71.7614C414.589 68.5356 415.583 65.3622 416.581 62.1732C417.046 60.6857 417.513 59.1949 417.96 57.6938C419.358 52.994 420.548 48.2272 420.824 43.2909C420.91 41.9326 420.89 40.5698 420.763 39.215C423.695 37.8096 426.957 37.2284 430.198 37.5375L430.212 37.5388L430.227 37.5394C431.366 37.5826 432.473 37.9286 433.434 38.5416C434.262 39.0697 434.955 39.7795 435.462 40.6143Z" fill="#737AA5" stroke="black"/>
<path d="M501.184 51.4373L501.177 51.434C499.375 50.5344 497.585 49.0038 496.572 47.3285C496.065 46.4886 495.735 45.5824 495.728 44.6813C495.72 43.7647 496.048 42.8865 496.792 42.1381L496.795 42.1349C497.284 41.6521 497.909 41.2822 498.53 40.9664C498.844 40.8074 499.165 40.6576 499.475 40.5134L499.507 40.4989C499.809 40.3585 500.099 40.2235 500.376 40.0845C500.955 39.7932 501.419 39.5083 501.73 39.1841C502.018 38.8847 502.164 38.5628 502.145 38.1525C501.996 37.3762 501.569 36.68 500.943 36.1941L500.924 36.1792L500.906 36.1624C491.771 27.522 479.594 22.8237 467.014 23.0845C465.376 23.3292 463.703 22.9669 462.313 22.065L462.251 22.0247L462.203 21.9682C461.462 21.0912 460.929 20.0589 460.642 18.948C459.681 16.6741 457.641 15.1263 455.079 14.0675C452.506 13.0041 449.469 12.4607 446.645 12.1619C432.355 10.677 417.932 11.0605 403.741 13.3026C400.939 13.9268 398.054 14.0876 395.2 13.7784C393.732 13.6302 392.336 13.0683 391.175 12.1582C390.014 11.2477 389.136 10.0262 388.644 8.63621L388.623 8.57878L388.617 8.51814C388.529 7.6232 388.371 6.73667 388.142 5.86692C387.717 5.17972 387.158 4.58454 386.498 4.11705C385.819 3.6361 385.048 3.30071 384.232 3.13203L384.21 3.12748L384.189 3.12097C377.947 1.23215 371.441 0.357184 364.92 0.529529L364.907 0.529878V0.529704C348.217 0.529704 331.849 4.08196 315.605 7.6345C315.839 8.21564 316.169 8.75463 316.584 9.22819C318.932 11.855 322.712 12.5753 326.435 13.1822C332.716 14.1744 339.589 15.389 344.459 19.7884C346.629 21.7235 348.205 24.1302 349.6 26.6397C350.175 27.6726 350.711 28.7082 351.245 29.7382C352.027 31.2482 352.804 32.7461 353.683 34.2055C358.699 42.466 366.702 48.486 376.038 51.0203C385.374 53.5546 395.328 52.4093 403.842 47.8214L501.184 51.4373ZM501.184 51.4373C501.52 51.5988 501.861 51.7591 502.204 51.9199C503.667 52.6072 505.155 53.3061 506.39 54.1669C507.904 55.2223 508.928 56.4491 509.053 58.0735C509.175 59.6705 508.274 61.0033 506.77 62.0813C505.267 63.1592 503.238 63.9188 501.328 64.3519L501.326 64.3523L500.689 64.4991C495.48 63.6061 490.868 60.7153 486.144 57.7413L486.077 57.6991C481.379 54.7416 476.566 51.7122 471.066 50.7571L471.066 50.7571C467.448 50.1326 463.822 50.4523 460.243 50.9041C459.595 50.9858 458.949 51.0718 458.305 51.1575C455.369 51.5484 452.469 51.9345 449.566 51.8964C446.878 51.8597 443.936 51.1849 441.565 49.8616C439.204 48.5442 437.456 46.6142 437.011 44.0687C436.939 42.8332 436.759 41.6063 436.473 40.4018L436.459 40.342M501.184 51.4373L436.459 40.342M436.459 40.342L436.431 40.2875M436.459 40.342L436.431 40.2875M436.431 40.2875C435.826 39.1166 434.921 38.1269 433.808 37.4192C432.701 36.7152 431.428 36.3152 430.117 36.2591M436.431 40.2875L430.117 36.2591M430.117 36.2591C425.163 35.6448 420.68 37.4326 416.418 39.8987C414.476 41.0227 412.562 42.2977 410.666 43.5617C410.478 43.6865 410.291 43.8112 410.104 43.9356C408.018 45.3243 405.947 46.682 403.843 47.821L430.117 36.2591Z" fill="#565D89" stroke="black"/>
<path d="M388.73 8.74014L388.733 8.77407L388.741 8.80726C388.858 9.31438 389.052 9.80021 389.315 10.2481C388.755 12.7107 388.691 15.2608 389.128 17.7495C389.22 18.606 389.314 19.4632 389.408 20.3209C390.588 31.0773 391.776 41.9047 388.905 52.2318C388.858 52.3457 388.828 52.443 388.805 52.5262C385.835 52.7437 382.849 52.6179 379.908 52.1511C377.218 46.5504 376.294 39.8282 376.125 32.9768C375.997 27.7595 376.306 22.5074 376.591 17.6454C376.686 16.0314 376.779 14.4605 376.852 12.9481L376.852 12.9393L376.852 12.9304C376.9 9.17962 377.16 5.43465 377.63 1.71324C379.888 2.08525 382.115 2.63009 384.291 3.34307L384.319 3.35218L384.347 3.35798C385.164 3.52346 385.938 3.85564 386.62 4.33365C387.282 4.79762 387.844 5.38927 388.273 6.07339C388.495 6.94889 388.648 7.84057 388.73 8.74014Z" fill="#737AA5" stroke="black"/>
<path d="M462.315 22.3052L462.328 22.3206L462.342 22.3349C462.377 22.3699 462.412 22.4038 462.448 22.4367C461.038 24.2127 459.83 26.1402 458.846 28.1838C454.325 36.4611 448.414 43.9004 441.371 50.1776C440.354 49.6232 439.462 48.8643 438.752 47.9475C437.973 46.9426 437.433 45.7744 437.173 44.5309L437.168 44.5109L437.163 44.4912C437.048 44.1037 437.034 43.6943 437.033 43.2333C440.914 36.9312 445.455 31.0582 450.579 25.7132L450.579 25.7131C450.618 25.6725 450.657 25.6318 450.696 25.591C452.118 24.1075 453.647 22.5114 454.951 20.8075C456.15 19.2411 457.177 17.5606 457.761 15.7596C459.069 16.6315 460.108 17.8546 460.756 19.293C461.047 20.3994 461.579 21.4281 462.315 22.3052Z" fill="#737AA5" stroke="black"/>
<path d="M481.774 55.3556C478.779 53.4873 475.501 52.1171 472.069 51.2975C475.293 48.8958 479.147 47.4628 483.176 47.181L483.187 47.1803L483.198 47.179C485.36 46.9309 487.544 46.855 489.749 46.7783L489.829 46.7755C491.92 46.7028 494.029 46.6275 496.123 46.398C496.458 47.3206 496.96 48.1726 497.601 48.9124C493.306 50.0498 489.136 51.6213 485.158 53.6029L485.158 53.6031C484.51 53.9266 483.84 54.2779 483.172 54.628C482.702 54.8745 482.234 55.1204 481.774 55.3556Z" fill="#737AA5" stroke="black"/>
<path d="M347.391 69.3799L347.391 69.3824C347.458 70.1584 347.968 70.9217 348.909 71.685C349.845 72.4438 351.141 73.147 352.635 73.8114C354.52 74.6496 356.638 75.3936 358.665 76.1059C359.876 76.5312 361.054 76.9452 362.132 77.3612L347.391 69.3799ZM347.391 69.3799C347.182 67.1151 347.753 66.0543 348.42 65.5678C349.115 65.0618 350.093 65.0395 350.982 65.2479C354.756 66.3508 358.461 67.6797 362.075 69.2276L362.085 69.2316L362.094 69.2352C387.694 78.9832 414.857 88.7441 442.294 83.4313C443.457 83.2065 444.699 83.0168 445.816 83.1006C446.916 83.1833 447.826 83.5257 448.432 84.2969C448.89 85.0485 449.066 85.9376 448.931 86.807C448.794 87.683 448.349 88.4817 447.676 89.06C446.181 90.2745 444.388 91.0671 442.482 91.3555L442.464 91.3582M347.391 69.3799L442.464 91.3582M442.464 91.3582L442.446 91.3623M442.464 91.3582L442.446 91.3623M442.446 91.3623C431.699 93.8075 420.565 94.0365 409.726 92.0352C406.132 91.3435 402.57 90.4266 399.015 89.4688M442.446 91.3623L399.015 89.4688M399.015 89.4688C386.524 86.0587 374.213 82.0176 362.132 77.3613L399.015 89.4688Z" fill="#00355B" stroke="black"/>
<path d="M416.579 82.7337C417.726 81.3596 419.272 80.3745 421.003 79.9142C422.746 79.3964 424.577 79.2443 426.381 79.4675C428.186 79.6907 429.924 80.2844 431.488 81.2112C432.9 82.0122 434.06 83.1903 434.839 84.6133C435.216 85.3251 435.424 86.1142 435.447 86.9193C435.47 87.7245 435.307 88.524 434.97 89.256C430.961 96.9813 410.16 91.2484 416.579 82.7337Z" fill="#00355B"/>
<path opacity="0.28" d="M420.909 85.1772C421.709 85.9418 422.321 86.8811 422.697 87.9215C422.898 88.4406 423.211 88.9089 423.615 89.2924C424.018 89.676 424.502 89.9653 425.031 90.1394C425.673 90.2134 426.32 90.0439 426.843 89.6645C427.366 89.2851 427.727 88.7234 427.855 88.0906C427.959 87.4526 427.906 86.7988 427.699 86.1862C427.492 85.5736 427.139 85.0207 426.669 84.5757C425.288 83.1571 423.532 82.1597 421.605 81.6999C421.263 81.6438 420.912 81.7018 420.605 81.8648C420.299 82.0279 420.055 82.2869 419.911 82.6021C419.158 83.8803 419.986 84.4629 420.909 85.1772Z" fill="white"/>
<path d="M488.92 287.182C490.445 285.584 499.368 276.129 497.56 263.179C497.228 260.357 496.267 257.645 494.749 255.242C493.232 252.838 491.195 250.804 488.788 249.288C481.071 242.634 471.546 241.375 459.95 241.319C449.107 241.319 442.594 240.398 438.396 244.777C433.22 250.19 432.486 254.551 433.182 262.126C433.672 267.502 438.114 274.588 441.521 278.798C445.437 283.629 452.345 286.317 457.164 287.464C465.277 289.475 483.951 288.347 488.92 287.182Z" fill="white"/>
<path d="M488.92 287.182C490.445 285.584 499.368 276.129 497.56 263.179C497.228 260.357 496.267 257.645 494.749 255.242C493.232 252.838 491.195 250.804 488.788 249.288C481.071 242.634 471.546 241.375 459.95 241.319C449.107 241.319 442.594 240.398 438.396 244.777C433.22 250.19 432.486 254.551 433.182 262.126C433.672 267.502 438.114 274.588 441.521 278.798C445.437 283.629 452.345 286.317 457.164 287.464C465.277 289.475 483.951 288.347 488.92 287.182" stroke="black" stroke-miterlimit="10"/>
<path fill-rule="evenodd" clip-rule="evenodd" d="M294.345 15.4353C291.833 13.8765 288.911 12.7886 285.912 13.304C283.283 13.7593 281.326 15.2668 279.587 17.6333C277.836 20.0169 276.342 23.2255 274.631 27.0223C274.498 27.3186 274.363 27.6183 274.227 27.9212C270.886 35.353 266.678 44.7116 258.317 53.8062C253.29 59.3064 251.316 61.0946 248.638 63.3231C248.296 63.608 247.942 63.9002 247.568 64.2084L247.557 64.218L247.554 64.2205C245.032 66.3024 241.617 69.1214 234.834 75.4126L234.831 75.4158C225.689 83.7343 217.79 93.3186 211.373 103.876L211.37 103.88C205.324 113.623 202.6 118.68 199.139 125.106L199.139 125.106L199.138 125.107C196.629 129.765 193.733 135.142 188.903 143.545L188.903 143.545C178.171 162.194 175.622 166.694 172.461 177.622C169.902 186.685 167.983 198.837 170.594 222.279C174.695 258.812 175.21 264.124 175.021 271.421C174.813 283.836 173.681 295.966 167.444 309.217L167.442 309.22C165.295 313.719 162.72 318.001 159.751 322.008C144.021 343.473 129.089 365.508 114.228 387.608C112.681 389.908 111.136 392.208 109.59 394.509L109.509 394.629L109.508 394.63C96.228 414.395 82.9422 434.167 69.1371 453.575C42.7393 490.902 19.8973 530.615 0.909632 572.192L0 571.776C19.0138 530.142 41.8873 490.375 68.3214 452.996L68.3222 452.995C82.1188 433.599 95.3965 413.839 108.677 394.074L108.678 394.072L108.679 394.071L108.737 393.985C110.29 391.673 111.844 389.361 113.398 387.05C128.26 364.95 143.202 342.899 158.945 321.415L158.947 321.413C161.877 317.458 164.42 313.231 166.539 308.79C172.688 295.727 173.814 283.762 174.021 271.403L174.021 271.399C174.208 264.187 173.706 258.969 169.6 222.39L169.6 222.39C166.978 198.841 168.899 186.557 171.498 177.35L171.499 177.347C174.7 166.285 177.309 161.687 188.036 143.046C192.831 134.704 195.725 129.333 198.238 124.669L198.239 124.667C201.717 118.211 204.466 113.109 210.52 103.354C216.985 92.7167 224.945 83.0597 234.156 74.6778C240.958 68.3686 244.389 65.5361 246.915 63.4509C247.294 63.1384 247.652 62.8426 247.998 62.5545C250.634 60.3613 252.575 58.6064 257.58 53.1304L257.581 53.1294C265.83 44.1562 269.981 34.926 273.323 27.4923C273.457 27.1958 273.589 26.9021 273.719 26.6115C275.421 22.8357 276.957 19.5254 278.781 17.0414C280.618 14.5404 282.78 12.8314 285.742 12.3186L285.743 12.3185C289.087 11.7437 292.265 12.9677 294.872 14.5855C297.476 16.2008 299.576 18.2494 300.791 19.4342L300.803 19.4454L300.803 19.4455C309.54 27.9601 313.006 40.8465 313.051 54.319C313.095 67.7998 309.718 81.9486 304.674 93.0894C294.47 115.754 276.438 128.247 269.395 132.722C268.943 136.804 268.2 140.85 267.171 144.828C265.164 152.903 261.983 160.64 257.729 167.794L257.265 167.518C261.492 160.409 264.653 152.72 266.647 144.697L266.648 144.694C267.635 140.88 268.357 137.003 268.81 133.091C268.567 133.244 268.341 133.384 268.133 133.514L268.132 133.515C263.018 136.673 257.621 139.348 252.011 141.507L251.652 140.573C257.204 138.437 262.546 135.789 267.607 132.664C267.994 132.423 268.444 132.142 268.947 131.821C268.97 131.597 268.991 131.372 269.012 131.147L269.55 131.197C269.542 131.281 269.534 131.366 269.526 131.45C276.925 126.675 293.985 114.394 303.763 92.6785L303.763 92.6775C308.752 81.6575 312.095 67.6497 312.051 54.3223C312.006 40.9866 308.573 28.4134 300.105 20.1616L300.105 20.1614C298.889 18.9761 296.854 16.9915 294.345 15.4353ZM307.984 410.696L307.977 410.7C304.502 412.588 301.52 414.132 298.892 415.492L298.891 415.493C290.352 419.913 285.554 422.397 279.75 428.463C271.346 437.223 268.26 445.841 263.603 458.841L263.599 458.854C263.081 460.3 262.543 461.8 261.977 463.361C255.978 480.162 253.307 485.777 250.756 491.141L250.645 491.374C248.074 496.78 245.578 502.092 239.804 518.729C232.997 538.341 229.746 550.334 225.414 566.312C223.268 574.226 220.858 583.117 217.619 594.396C212.478 612.334 204.777 637.942 194.195 668.891L193.248 668.567C203.824 637.638 211.521 612.045 216.658 594.12C219.887 582.874 222.295 573.995 224.439 566.085L224.44 566.083C228.778 550.083 232.042 538.045 238.86 518.401C244.644 501.731 247.155 496.385 249.742 490.945L249.859 490.7C252.395 485.368 255.053 479.778 261.036 463.023L261.037 463.02C261.606 461.452 262.146 459.943 262.668 458.486C267.312 445.513 270.47 436.692 279.029 427.771C284.956 421.576 289.925 419.004 298.515 414.559C301.131 413.205 304.083 411.678 307.5 409.821L307.503 409.819L307.649 409.741C307.745 409.689 307.889 409.612 308.078 409.51C308.455 409.307 309.013 409.006 309.733 408.616C311.172 407.836 313.26 406.7 315.852 405.274C321.036 402.422 328.237 398.412 336.305 393.782C352.445 384.518 372.036 372.781 385.887 362.863L386.47 363.676C372.574 373.625 352.946 385.384 336.802 394.649C328.728 399.283 321.522 403.296 316.334 406.15C313.74 407.577 311.65 408.715 310.209 409.496C309.766 409.736 309.384 409.942 309.067 410.113C308.87 410.22 308.697 410.313 308.552 410.391C308.363 410.493 308.218 410.57 308.121 410.622L307.984 410.696Z" fill="black"/>
<path d="M486.906 229.157C489.033 226.714 505.975 209.572 505.975 198.82C505.84 191.584 503.176 184.623 498.445 179.14C495.52 175.241 491.435 172.366 486.774 170.926C478.68 168.276 472.939 170.306 467.95 171.716C459.385 174.159 458.896 175.475 448.863 178.915C438.829 182.354 435.347 185.042 431.921 189.178C428.834 193.169 427.148 198.063 427.121 203.106C426.782 209.402 427.742 213.632 432.41 221.357C436.227 226.518 441.638 230.283 447.808 232.071C454.811 234.195 460.797 232.071 468.515 229.515C471.866 228.443 473.635 227.071 481.127 223.594C485.908 221.395 489.824 219.459 492.553 218.086" fill="white"/>
<path d="M486.906 229.157C489.033 226.714 505.975 209.572 505.975 198.82C505.84 191.584 503.176 184.623 498.445 179.14C495.52 175.241 491.435 172.366 486.774 170.926C478.68 168.276 472.939 170.306 467.95 171.716C459.385 174.159 458.896 175.475 448.863 178.915C438.829 182.354 435.347 185.042 431.921 189.178C428.834 193.169 427.148 198.063 427.121 203.106C426.782 209.402 427.742 213.632 432.41 221.357C436.227 226.518 441.638 230.283 447.808 232.071C454.811 234.195 460.797 232.071 468.515 229.515C471.866 228.443 473.635 227.071 481.127 223.594C485.908 221.395 489.824 219.459 492.553 218.086" stroke="black" stroke-miterlimit="10"/>
<path d="M478.134 162.317C483.649 157.975 494.228 149.686 495.603 135.627C496.807 123.353 490.087 114.424 488.92 112.526C480.863 99.2556 462.246 101.041 458.67 101.549C444.646 103.428 431.695 104.838 421.022 117.093C414.245 124.95 417.445 137.769 418.048 140.401C420.276 147.884 424.75 154.504 430.867 159.366C439.94 166.434 453.305 163.708 459.253 161.885C469.292 158.937 478.426 153.514 485.814 146.115" fill="white"/>
<path d="M478.134 162.317C483.649 157.975 494.228 149.686 495.603 135.627C496.807 123.353 490.087 114.424 488.92 112.526C480.863 99.2556 462.246 101.041 458.67 101.549C444.646 103.428 431.695 104.838 421.022 117.093C414.245 124.95 417.445 137.769 418.048 140.401C420.276 147.884 424.75 154.504 430.867 159.366C439.94 166.434 453.305 163.708 459.253 161.885C469.292 158.937 478.426 153.514 485.814 146.115" stroke="black" stroke-miterlimit="10"/>
<path d="M457.766 99.5189C461.531 98.5791 468.778 96.7934 473.823 90.1207C477.447 84.9831 479.054 78.6955 478.341 72.4522C477.59 64.4758 473.754 57.106 467.649 51.9077C459.084 44.7651 444.495 41.0246 433.502 48.1485C423.695 54.558 422.208 66.0426 421.982 68.2794C420.758 78.0723 424.109 90.6658 434.312 97.0378C443.855 102.959 454.152 100.402 457.766 99.5189Z" fill="white" stroke="black" stroke-miterlimit="10"/>
<path d="M253.732 58.4488C253.281 65.7418 255.897 69.7267 259.38 70.986C260.754 71.4747 262.862 71.5311 266.683 69.1064C277.225 62.584 282.627 48.9755 284.962 41.7389C283.918 40.4629 283.236 38.9312 282.985 37.3029C282.368 33.4817 282.426 29.5822 283.154 25.7808C283.539 21.6489 284.443 17.5818 285.846 13.6759C284.529 14.2022 283.531 13.6759 281.63 15.2548C279.651 17.1096 278.052 19.3313 276.924 21.7959C274.815 25.7808 274.91 26.7958 272.556 32.2655C271.315 35.4245 269.81 38.4739 268.058 41.3817C266.228 44.2164 264.142 46.8778 261.827 49.3326C259.321 52.536 256.617 55.5806 253.732 58.4488Z" fill="#F3F4FB"/>
<path d="M460.477 82.0006C462.46 80.498 464.081 78.5713 465.221 76.3617C466.534 73.8784 467.14 71.0826 466.971 68.2793C466.623 64.5712 465 61.0977 462.378 58.4488C460.256 56.1309 457.582 54.3853 454.604 53.3738C449.825 51.9006 444.663 52.2971 440.166 54.4827C441.827 54.9026 443.428 55.5344 444.928 56.3624C447.947 58.1357 450.522 60.5718 452.458 63.4862C454.547 66.3864 456.249 69.5456 457.522 72.8844C458.745 75.841 459.733 78.8891 460.477 82.0006Z" fill="#F3F4FB"/>
<path d="M433.389 112.676C437.036 113.925 440.36 115.967 443.121 118.654C447.011 122.522 449.636 127.476 450.651 132.864C451.753 138.176 451.409 143.687 449.653 148.822C453.419 148.195 456.999 146.744 460.138 144.574C462.51 142.92 468.176 138.935 469.55 131.623C470.437 127.079 469.541 122.368 467.047 118.466C463.282 112.827 456.938 111.605 452.571 110.74C446.124 109.517 439.46 110.19 433.389 112.676Z" fill="#F3F4FB"/>
<path d="M443.121 190.192C447.242 191.405 450.897 193.837 453.606 197.166C456.11 200.444 457.666 204.345 458.105 208.444C458.71 212.261 458.537 216.161 457.597 219.91C461.098 219.438 464.485 218.336 467.592 216.658C472.268 214.503 476.057 210.806 478.322 206.188C479.094 204.459 481.805 198.331 478.812 192.241C477.833 190.395 476.497 188.762 474.882 187.436C473.266 186.11 471.403 185.117 469.4 184.516C465.014 183.069 461.324 183.896 456.43 185.005C451.755 186.046 447.266 187.795 443.121 190.192Z" fill="#F3F4FB"/>
<path d="M450.726 248.837C452.811 250.411 454.521 252.427 455.733 254.739C457.593 258.298 458.152 262.392 457.315 266.318C456.711 268.995 455.464 271.485 453.682 273.573C455.323 273.991 457.031 274.081 458.707 273.84C460.384 273.598 461.996 273.029 463.452 272.165C464.908 271.301 466.18 270.159 467.194 268.804C468.208 267.449 468.945 265.908 469.362 264.269C470.069 261.375 469.75 258.326 468.458 255.641C466.906 252.7 464.317 250.437 461.192 249.288C457.855 247.962 454.166 247.803 450.726 248.837Z" fill="#F3F4FB"/>
<path d="M234.215 32.015C215.941 36.1282 195.951 49.5734 180.452 70.0326C164.953 90.4918 157.422 113.375 158.41 132.08" stroke="#565D89" stroke-width="5" stroke-linecap="round"/>
<path d="M190.832 28.8822C181.168 32.9107 169.753 42.333 159.957 55.2644C150.16 68.1958 144.18 81.7354 142.919 92.1292" stroke="#565D89" stroke-width="5" stroke-linecap="round"/>
<path d="M480 440.391C497.748 434.404 516.235 418.957 529.528 397C542.82 375.043 547.936 351.501 545.013 333" stroke="#565D89" stroke-width="5" stroke-linecap="round"/>
<path d="M523.474 439.005C532.667 433.996 543.043 423.44 551.445 409.562C559.846 395.684 564.389 381.596 564.565 371.128" stroke="#565D89" stroke-width="5" stroke-linecap="round"/>
</svg>
