<svg width="337" height="278" viewBox="0 0 337 278" fill="none" xmlns="http://www.w3.org/2000/svg">
<path d="M313.102 22.3738L310.771 24.2885C310.807 24.3932 310.812 24.4702 310.853 24.5097C313.287 26.7703 314.992 29.5597 316.529 32.4495C319.325 37.7125 321.418 43.2691 323.21 48.9382C327.012 60.964 329.55 73.3531 330.786 85.9049C331.171 89.7792 331.366 93.6672 331.371 97.5689C331.399 97.8602 331.334 98.153 331.184 98.4043C331.034 98.6556 330.807 98.8521 330.537 98.9649C304.228 113.193 277.936 127.44 251.661 141.704C249.628 142.803 247.605 143.917 245.58 145.005C244.964 145.327 244.475 145.848 244.193 146.483C242.689 149.648 240.707 152.563 238.317 155.126C236.025 157.594 233.63 159.963 231.061 162.239C231.248 162.58 231.5 162.881 231.803 163.124C232.107 163.367 232.455 163.547 232.829 163.655C236.991 164.802 238.963 168.745 237.315 172.742C235.865 176.279 233.07 178.258 229.472 179.271C228.574 179.478 227.648 179.531 226.732 179.431C224.692 179.315 222.643 179.318 220.592 179.288C217.678 179.245 214.772 179.212 211.874 179.19C210.322 179.172 208.772 179.176 207.221 179.151C207.067 179.14 206.914 179.173 206.779 179.247C206.644 179.321 206.533 179.433 206.461 179.568C205.615 180.869 204.622 182.069 203.502 183.142C201.414 185.031 199.017 186.019 196.197 185.844C196.003 185.839 195.811 185.877 195.633 185.954C195.455 186.032 195.297 186.147 195.168 186.292C192.872 188.31 190.045 189.627 187.023 190.086C181.275 190.932 176.085 188.038 173.815 182.702C173.713 182.461 173.603 182.223 173.488 181.966C171.18 185.666 167.672 187.226 163.597 187.595C161.942 187.741 160.286 187.989 158.636 188.066C152.87 188.323 148.456 184.467 147.693 179.612C147.674 179.512 147.653 179.415 147.629 179.297C147.318 179.306 147.242 179.585 147.055 179.75C146.19 180.614 145.216 181.362 144.157 181.976C143.452 182.411 142.648 182.663 141.82 182.709C141.494 182.712 141.174 182.801 140.893 182.968C140.612 183.134 140.38 183.372 140.221 183.657C138.708 185.855 136.688 187.403 134.06 188.023C130.642 188.825 127.731 187.826 125.313 185.345C124.335 184.402 123.603 183.232 123.184 181.94C123.122 181.79 123.188 181.594 123.01 181.493C122.92 180.927 122.762 180.374 122.539 179.846C122.403 179.546 122.335 179.22 122.337 178.89C122.206 178.151 122.217 178.152 121.42 178.125C119.8 178.092 118.184 178.058 116.567 178.039C114.089 178.014 111.61 178.01 109.133 177.982C103.486 177.914 97.8391 177.841 92.191 177.763C86.2792 177.685 80.3652 177.636 74.4531 177.561C70.6571 177.518 66.856 177.444 63.06 177.401C58.4283 177.351 53.8049 177.303 49.1898 177.259C47.0447 177.242 44.8977 177.217 42.7489 177.185L26.1081 176.989C21.3508 176.928 16.5951 176.845 11.8398 176.806C8.89554 176.783 6.31399 175.908 4.26329 173.738C2.63486 172.015 1.69738 169.976 1.80933 167.556C1.84059 166.342 2.20337 165.16 2.85837 164.138C3.51337 163.115 4.43561 162.292 5.5252 161.756C7.68214 160.609 9.88668 159.556 12.0688 158.462L35.0224 146.956C35.9169 146.46 36.8377 146.013 37.7807 145.617C38.9235 145.174 40.1427 144.961 41.3679 144.992C45.0051 145.111 48.6562 145.046 52.2706 145.079C56.563 145.116 60.8583 145.114 65.1523 145.129L77.3455 145.171L89.9291 145.209L102.717 145.251L105.013 145.266C105.167 144.804 104.942 144.404 104.874 144.002C104.623 142.796 104.673 141.548 105.019 140.366C105.175 139.896 105.437 139.469 105.785 139.115C106.132 138.762 106.556 138.493 107.023 138.329C109.748 137.191 112.664 137.019 115.541 136.575C117.014 136.377 118.5 136.292 119.986 136.321C120.75 136.358 121.502 136.125 122.11 135.663C122.606 135.276 123.145 134.949 123.718 134.69C126.101 133.543 128.341 132.12 130.391 130.449C133.417 128.099 136.606 125.965 139.933 124.065C143.124 122.194 146.185 120.109 149.093 117.823C152.306 115.333 155.505 112.834 158.893 110.576C159.661 110.065 160.353 109.442 161.088 108.881C163.687 106.888 166.709 106.02 169.907 105.68C173.362 105.37 176.833 105.283 180.3 105.419C186.043 105.55 191.793 105.649 197.528 105.163C200.957 104.868 204.301 103.938 207.389 102.42C210.599 100.875 213.637 98.994 216.45 96.8089C231.488 85.052 246.52 73.2778 261.548 61.4862C277.983 48.6187 294.417 35.7389 310.849 22.8468C311.082 22.6637 311.301 22.465 311.527 22.2741L313.102 22.3738Z" fill="black"/>
<path d="M122.545 179.854C122.743 180.075 122.888 180.338 122.969 180.623C123.051 180.908 123.067 181.208 123.016 181.5C122.713 181.004 122.55 180.435 122.545 179.854Z" fill="#181919"/>
<path d="M123.013 181.493C123.222 181.581 123.238 181.747 123.187 181.94C123.116 181.892 123.062 181.823 123.031 181.744C122.999 181.664 122.993 181.576 123.013 181.493Z" fill="#181919"/>
<path d="M236.879 132.163C237.993 133.84 239.084 135.533 240.218 137.193C241.606 139.285 242.748 141.53 243.622 143.884C243.715 144.09 243.761 144.314 243.758 144.54C243.755 144.766 243.703 144.988 243.604 145.191C242.054 148.624 239.949 151.777 237.374 154.526C235.368 156.676 233.291 158.756 231.105 160.725C230.862 160.996 230.572 161.221 230.249 161.39C230.013 161.275 229.81 161.102 229.66 160.887L220.59 151.325C220.349 151.103 220.148 150.841 219.995 150.552C218.961 148.25 216.112 146.461 213.592 146.426C208.804 146.377 204.016 146.288 199.226 146.225C194.436 146.162 189.583 146.112 184.761 146.05C179.938 145.987 175.18 145.926 170.405 145.864C165.63 145.802 160.762 145.747 155.94 145.681L145.84 145.541C145.889 145.18 146.194 145.148 146.404 145.015C149.747 142.881 153.264 141.055 156.748 139.172C158.895 138.009 161.194 137.16 163.439 136.202C163.985 135.965 164.532 135.729 165.087 135.519C168.464 134.244 171.13 132.045 173.273 129.179C174.259 127.856 175.199 126.501 176.156 125.155C176.751 124.282 177.398 123.446 178.094 122.653C178.204 122.529 178.308 122.399 178.404 122.264C178.563 122.042 178.701 121.794 178.483 121.541C178.265 121.287 177.944 121.387 177.69 121.569C177.216 121.929 176.804 122.365 176.47 122.859C175.519 124.166 174.586 125.485 173.648 126.804C172.672 128.218 171.585 129.551 170.396 130.79C169.074 132.142 167.508 133.23 165.781 134C165.449 134.15 165.123 134.315 164.785 134.443C155.264 138.105 146.59 143.315 138.195 149.034C137.138 149.708 136.037 150.309 134.899 150.833C133.232 151.663 131.453 151.855 129.649 152.048C125.807 152.492 121.928 152.505 118.084 152.086C115.187 151.726 112.401 150.752 109.912 149.228C107.727 147.923 106.195 146.08 105.883 143.428C105.755 142.542 105.807 141.639 106.035 140.774C106.315 139.803 106.888 139.456 107.861 139.612C108.087 139.706 108.372 139.603 108.556 139.825C108.71 139.954 108.897 140.036 109.096 140.062C109.218 140.088 109.338 140.126 109.452 140.176C109.68 140.302 109.915 140.416 110.156 140.517C110.397 140.629 110.655 140.704 110.919 140.738C111.239 140.779 111.561 140.803 111.884 140.811C112.295 140.785 112.704 140.728 113.107 140.64C113.279 140.605 113.454 140.589 113.629 140.591C113.79 140.592 113.951 140.576 114.11 140.543C114.184 140.52 114.259 140.503 114.336 140.491C114.487 140.462 114.632 140.41 114.767 140.337C114.97 140.215 115.183 140.109 115.403 140.02C115.517 139.98 115.634 139.949 115.753 139.926C116.028 139.87 116.299 139.797 116.564 139.706L116.793 139.621C117.062 139.532 117.343 139.48 117.61 139.38C117.876 139.28 118.15 139.176 118.411 139.057C118.486 139.019 118.565 138.988 118.644 138.958C118.965 138.847 119.276 138.71 119.575 138.55C119.792 138.428 120.015 138.32 120.233 138.191C120.45 138.061 120.659 137.957 120.862 137.819C121.116 137.622 121.41 137.483 121.724 137.413C122.676 136.146 124.109 135.601 125.446 134.891C127.393 133.836 129.238 132.602 130.958 131.206C133.953 128.87 137.115 126.756 140.419 124.881C143.721 122.934 146.886 120.765 149.893 118.389C153.443 115.64 156.976 112.864 160.796 110.488C161.385 110.124 161.892 109.637 162.464 109.246C164.556 107.805 166.944 107.164 169.415 106.849C172.234 106.511 175.075 106.382 177.913 106.465C182.075 106.543 186.235 106.691 190.396 106.59C193.464 106.517 196.536 106.485 199.582 106.028C203.554 105.424 207.193 103.921 210.659 101.942C213.49 100.303 216.195 98.4558 218.752 96.4154C223.837 92.4209 228.923 88.4179 234.009 84.4065C258.113 65.5138 282.216 46.6234 306.32 27.7355L309.128 25.5321C309.81 24.9998 309.813 25 310.47 25.6326C311.51 26.6495 312.435 27.7777 313.229 28.9968C315.141 31.9282 316.775 35.0315 318.11 38.2662C321.462 46.083 323.844 54.2062 325.799 62.4762C327.641 70.2811 328.955 78.2012 329.733 86.1827C330.087 89.8335 330.258 93.4924 330.325 97.1655C330.335 97.8188 329.988 98.0189 329.543 98.2591L312.396 107.549L246.146 143.482L244.748 144.231C243.186 139.479 240.333 135.554 237.527 131.599C237.466 131.531 237.411 131.459 237.361 131.383C237.201 131.292 237.054 131.179 236.926 131.048C236.852 130.925 236.803 130.794 236.732 130.668C236.677 130.584 236.617 130.503 236.554 130.425L236.352 130.191C236.285 130.121 236.218 130.043 236.151 129.965C236.102 129.917 236.056 129.866 236.012 129.812L235.945 129.738C235.898 129.687 235.854 129.636 235.811 129.582L235.68 129.426L235.617 129.345C235.57 129.294 235.526 129.244 235.483 129.189L235.416 129.111L235.282 128.955L235.211 128.877C235.16 128.826 235.117 128.772 235.07 128.717C235.043 128.693 235.018 128.667 234.996 128.639L234.847 128.478L234.699 128.31L234.626 128.224C234.522 128.104 234.421 127.987 234.324 127.863C234.228 127.733 234.141 127.596 234.063 127.453C233.939 127.238 233.789 127.04 233.616 126.862C233.554 126.802 233.501 126.74 233.443 126.677L233.359 126.584C233.096 126.305 232.769 126.095 232.522 125.792C232.33 125.563 232.135 125.337 231.938 125.114C231.774 124.919 231.603 124.724 231.442 124.533C231.382 124.473 231.326 124.409 231.274 124.342L231.19 124.244C231.129 124.185 231.075 124.119 231.018 124.053C230.961 123.987 230.961 123.987 230.935 123.956C230.648 123.628 230.344 123.315 230.024 123.02C229.152 122.078 228.221 121.194 227.236 120.372C227.729 121.579 228.753 122.359 229.595 123.286C229.906 123.588 230.197 123.908 230.468 124.245C230.526 124.304 230.579 124.37 230.629 124.432C230.679 124.494 230.736 124.557 230.79 124.623C230.843 124.689 230.84 124.685 230.867 124.713C230.894 124.74 230.974 124.834 231.025 124.896C231.152 125.047 231.279 125.199 231.418 125.344C231.476 125.396 231.53 125.455 231.587 125.51L231.77 125.659C231.96 125.808 232.135 125.975 232.294 126.158C232.425 126.302 232.548 126.457 232.676 126.605C232.73 126.661 232.776 126.722 232.827 126.781L232.97 126.956L233.041 127.041C233.091 127.096 233.138 127.154 233.181 127.208C233.275 127.321 233.365 127.43 233.463 127.536C233.561 127.642 233.557 127.641 233.604 127.696C233.651 127.75 233.694 127.805 233.738 127.859L233.872 128.015L233.939 128.096C233.983 128.144 234.026 128.198 234.069 128.252C234.115 128.303 234.158 128.357 234.196 128.415C234.232 128.471 234.264 128.529 234.292 128.59C234.329 128.681 234.373 128.769 234.422 128.855L234.541 129.013C234.588 129.064 234.628 129.114 234.672 129.169C234.715 129.223 234.763 129.267 234.81 129.321L234.877 129.395C234.928 129.447 234.971 129.501 235.015 129.552C235.058 129.602 235.109 129.657 235.156 129.712C235.203 129.766 235.199 129.766 235.223 129.79C235.247 129.813 235.317 129.899 235.36 129.953C235.409 130.004 235.455 130.057 235.498 130.113L235.565 130.194C235.614 130.245 235.659 130.299 235.698 130.358L235.899 130.599L236.104 130.836C236.154 130.888 236.201 130.942 236.248 130.997L236.318 131.082C236.365 131.141 236.407 131.204 236.443 131.27C236.48 131.338 236.51 131.41 236.533 131.485C236.556 131.563 236.576 131.637 236.603 131.712C236.625 131.789 236.665 131.859 236.719 131.918L236.718 131.936L236.879 132.163Z" fill="#F3F4FB"/>
<path d="M213.657 165.365C211.715 165.198 209.763 165.267 207.833 165.235C202.844 165.15 197.856 165.104 192.868 165.048C188.11 164.994 183.355 164.952 178.598 164.894C173.906 164.838 169.215 164.768 164.527 164.712C159.838 164.656 155.08 164.606 150.355 164.551L136.381 164.38L121.81 164.207L111.009 164.073L96.5392 163.905C92.974 163.864 89.4065 163.819 85.837 163.77L71.2653 163.598L60.4646 163.464L45.8927 163.295C42.325 163.254 38.7576 163.209 35.1904 163.16L20.6188 162.988C17.8747 162.953 15.1336 162.91 12.3954 162.861C11.7825 162.9 11.1705 162.771 10.6258 162.488C10.8697 162.228 11.1784 162.039 11.5201 161.938C21.4205 157.006 31.332 152.119 41.201 147.119C42.2768 146.591 43.4674 146.339 44.665 146.387C49.0382 146.415 53.3846 146.413 57.7478 146.43C60.7844 146.438 63.8238 146.458 66.8603 146.467L80.0379 146.509L89.2523 146.55L102.237 146.593C103.228 146.598 104.219 146.603 105.208 146.597C105.353 146.578 105.501 146.601 105.634 146.663C105.767 146.725 105.88 146.824 105.958 146.948C107.188 148.834 108.943 150.089 110.934 151.051C113.361 152.267 115.991 153.028 118.693 153.294C123.599 153.742 128.543 153.514 133.387 152.616C134.496 152.414 135.609 152.155 136.533 151.495C137.339 150.917 138.176 150.4 138.993 149.856C140.987 148.503 143.003 147.185 145.098 145.796C145.236 146.098 145.138 146.43 145.402 146.606C145.663 146.749 145.962 146.808 146.257 146.776C151.277 146.843 156.297 146.909 161.319 146.974C167.233 147.045 173.145 147.116 179.056 147.187C182.699 147.233 186.34 147.298 189.957 147.347C194.88 147.409 199.801 147.469 204.722 147.526C207.695 147.55 210.675 147.589 213.66 147.645C215.743 147.685 217.217 148.838 218.567 150.284C218.619 150.328 218.658 150.385 218.679 150.449C218.95 151.691 219.991 152.396 220.785 153.247C223.948 156.62 227.143 159.965 230.323 163.324C230.589 163.53 230.803 163.796 230.947 164.1C230.446 164.418 229.896 164.65 229.32 164.788C226.847 165.529 224.318 165.606 221.764 165.436C221.148 165.39 220.52 165.201 219.904 165.439C219.216 165.865 218.488 165.559 217.78 165.568C217.415 165.574 217.063 165.398 216.692 165.487C215.669 165.516 214.67 165.266 213.657 165.365Z" fill="white"/>
<path d="M222.807 166.704C225.283 166.848 227.765 166.54 230.131 165.794C230.671 165.654 231.182 165.419 231.641 165.101C232.132 164.726 232.58 164.781 233.108 164.992C235.999 166.157 237.322 168.899 236.34 171.837C235.33 174.85 233.116 176.664 230.246 177.784C229.448 178.097 228.595 178.248 227.737 178.23C219.779 178.119 211.817 178.048 203.854 177.951C197.082 177.871 190.311 177.768 183.539 177.688C177.693 177.614 171.844 177.567 165.998 177.497C160.314 177.436 154.633 177.342 148.951 177.27C144.127 177.212 139.306 177.175 134.483 177.117C129.857 177.062 125.232 176.989 120.609 176.934C115.786 176.876 110.962 176.832 106.138 176.773C101.483 176.72 96.8247 176.648 92.1656 176.591C87.3426 176.531 82.519 176.479 77.6949 176.433C73.105 176.376 68.5141 176.317 63.9222 176.255L52.5228 176.131L42.0322 175.994L30.6341 175.851L16.4638 175.676C14.5805 175.652 12.6951 175.656 10.8143 175.552C9.55403 175.504 8.32177 175.167 7.21335 174.565C6.10493 173.963 5.15022 173.114 4.42348 172.084C3.12263 170.32 2.6033 168.345 3.26794 166.189C3.74294 164.715 4.56069 163.533 6.11482 162.986C6.30225 162.92 6.48049 162.83 6.64524 162.719C7.4133 162.2 7.99558 162.069 8.79533 162.88C9.73986 163.851 11.1332 164.04 12.4799 164.071C14.132 164.115 15.7823 164.132 17.436 164.154L28.5345 164.256C33.489 164.314 38.4446 164.371 43.4015 164.429C46.935 164.471 50.4678 164.524 54.005 164.567C58.8937 164.627 63.7826 164.683 68.6717 164.735L79.1738 164.866L93.9423 165.038L104.346 165.168L119.311 165.341C122.779 165.382 126.247 165.427 129.715 165.475C134.669 165.532 139.625 165.59 144.582 165.647C148.115 165.69 151.648 165.743 155.185 165.785C160.074 165.84 164.963 165.896 169.852 165.954L180.256 166.08L195.221 166.257C198.754 166.299 202.287 166.356 205.824 166.395C208.895 166.425 211.965 166.449 215.037 166.465C215.961 166.439 216.894 166.538 217.79 166.208L218.153 166.235C219.701 166.355 221.215 166.873 222.807 166.704Z" fill="#F3F4FB"/>
<path d="M173.748 178.781C174.744 178.775 175.66 178.76 176.578 178.767C180.804 178.813 185.031 178.866 189.259 178.925C189.623 178.93 190.138 178.769 190.389 179.072C190.743 179.518 190.926 180.076 190.905 180.645C190.85 181.635 190.684 182.616 190.409 183.569C190.316 184.089 190.13 184.589 189.861 185.045C189.815 185.093 189.781 185.152 189.76 185.215C189.739 185.279 189.732 185.346 189.741 185.413C189.749 185.479 189.772 185.543 189.808 185.6C189.843 185.656 189.891 185.704 189.948 185.74C190.294 185.981 190.505 185.753 190.694 185.508C190.819 185.353 190.915 185.178 190.978 184.99C191.555 183.068 192.235 181.153 191.542 178.968L205.531 179.123C203.378 182.414 200.835 184.911 196.761 184.88C195.762 184.861 194.794 185.233 194.066 185.917C191.281 188.188 188.097 189.426 184.468 189.242C179.285 188.978 175.236 185.539 174.051 180.477C173.923 179.942 173.855 179.39 173.748 178.781Z" fill="#F3F4FB"/>
<path d="M123.418 179.642C123.376 179.187 123.333 178.732 123.275 178.148L141.391 178.363C141.41 178.905 141.3 179.444 141.073 179.936C140.371 182.154 139 184.101 137.148 185.509C133.151 188.528 128.04 187.744 125.153 183.648C124.824 183.164 124.524 182.646 124.212 182.145C124.082 181.872 124.013 181.576 123.91 181.298C123.735 181.208 123.792 181.023 123.733 180.884C123.387 180.541 123.522 180.062 123.418 179.642Z" fill="#F3F4FB"/>
<path d="M148.574 178.449L166.898 178.669C167.015 179.624 166.871 180.592 166.484 181.471C165.135 184.874 162.541 186.7 158.98 187.071C157.48 187.257 155.957 187.075 154.541 186.542C153.126 186.01 151.862 185.142 150.856 184.013C149.427 182.508 148.614 180.524 148.574 178.449Z" fill="#F3F4FB"/>
<path d="M164.237 186.109C165.731 184.857 166.909 183.392 167.5 181.489C167.775 180.594 167.929 179.666 167.958 178.73C169.462 178.664 170.942 178.706 172.419 178.755C172.55 178.764 172.72 178.777 172.754 178.904C172.863 179.349 172.939 179.803 173.036 180.256C173.065 180.368 173.056 180.487 173.01 180.593C172.964 180.699 172.883 180.787 172.781 180.842C172.716 180.891 172.662 180.954 172.623 181.026C172.585 181.098 172.562 181.177 172.556 181.259C172.424 181.843 172.132 182.378 171.711 182.803C169.945 184.794 167.517 186.077 164.878 186.415C164.595 186.434 164.233 186.652 164.237 186.109Z" fill="#F3F4FB"/>
<path d="M108.078 139.444C107.978 139.367 107.838 139.28 108.032 139.17C108.587 138.877 109.186 138.675 109.805 138.574C112.515 138.036 115.254 137.663 118.009 137.456C118.991 137.395 119.983 137.491 120.966 137.357C121.002 137.333 121.043 137.32 121.086 137.32C121.129 137.319 121.171 137.331 121.207 137.353C121.293 137.564 121.146 137.677 121.024 137.799C120.953 137.848 120.878 137.89 120.8 137.924C120.606 138.01 120.42 138.109 120.241 138.222C120.053 138.305 119.876 138.415 119.718 138.547C119.644 138.588 119.567 138.622 119.487 138.65C119.172 138.765 118.87 138.914 118.555 139.025L118.322 139.121C118.057 139.243 117.778 139.328 117.51 139.443C117.243 139.558 116.955 139.602 116.685 139.698L116.453 139.786C116.177 139.868 115.901 139.942 115.622 140.02C115.496 140.031 115.372 140.056 115.252 140.094L114.416 140.396L114.16 140.457C113.781 140.644 113.353 140.575 112.967 140.714C112.51 140.775 112.058 140.876 111.593 140.896C111.414 140.918 111.232 140.913 111.055 140.881C110.854 140.789 110.629 140.765 110.433 140.659C110.17 140.516 109.873 140.45 109.619 140.285L109.386 140.18C109.197 140.082 108.981 140.044 108.791 139.949C108.57 139.776 108.255 139.705 108.078 139.444Z" fill="#FDFEFE"/>
<path d="M141.439 181.71C141.796 180.694 142.213 179.799 142.384 178.824C142.448 178.464 142.673 178.371 143.019 178.379C144.231 178.408 145.445 178.411 146.662 178.426C146.156 179.875 143.316 181.675 141.439 181.71Z" fill="#F3F4FB"/>
<path d="M222.807 166.703C222.559 166.789 222.292 166.811 222.033 166.765C220.695 166.665 219.359 166.594 218.02 166.505C218.023 166.465 217.986 166.422 217.967 166.381C218.006 166.301 218.067 166.233 218.142 166.186C218.231 166.116 218.422 166.05 218.347 165.932C218.187 165.69 217.886 165.806 217.632 165.75C217.281 165.709 216.945 165.583 216.653 165.385C217.725 165.296 218.803 165.318 219.871 165.451C219.636 166.254 219.704 166.369 220.466 166.466C221.228 166.563 222.038 166.503 222.807 166.703Z" fill="#302D2D"/>
<path d="M216.665 165.372L217.882 165.529C218.231 165.727 218.292 165.99 218.031 166.31C217.967 166.371 217.899 166.427 217.825 166.476C216.898 166.575 215.963 166.57 215.037 166.461C215.36 166.186 215.729 166.371 216.081 166.346C216.308 166.349 216.535 166.333 216.759 166.298C216.839 166.275 216.909 166.225 216.956 166.157C217.004 166.089 217.026 166.007 217.021 165.924C217.02 165.881 217.01 165.839 216.991 165.8C216.973 165.761 216.947 165.727 216.915 165.698C216.883 165.67 216.846 165.649 216.805 165.635C216.764 165.622 216.721 165.617 216.679 165.621C216.287 165.592 215.892 165.562 215.5 165.533C214.877 165.524 214.254 165.468 213.639 165.364C214.661 165.197 215.661 165.341 216.665 165.372Z" fill="#121515"/>
<path d="M35.2421 148.796C35.2252 148.825 35.199 148.848 35.1677 148.861C35.1364 148.874 35.1017 148.876 35.0691 148.867C34.978 148.893 34.8937 148.939 34.822 149.001C34.8175 149.014 34.8104 149.025 34.8013 149.034C34.7922 149.043 34.7813 149.05 34.7692 149.055C34.7571 149.059 34.7442 149.061 34.7313 149.061C34.7184 149.06 34.7058 149.056 34.6944 149.05C34.4477 149.13 34.4106 148.992 34.4292 148.793C34.4842 148.744 34.5491 148.706 34.6197 148.684L34.8036 148.614C34.8867 148.576 34.9658 148.531 35.0398 148.478C36.2435 147.839 37.4078 147.142 38.7053 146.711C38.9486 146.627 38.9714 146.76 38.9392 146.947C37.7999 147.588 36.6282 148.17 35.4287 148.69C35.3732 148.736 35.3101 148.772 35.2421 148.796Z" fill="#D2DCDC"/>
<path d="M34.428 148.807L34.6932 149.064C34.2958 149.353 33.8543 149.576 33.3858 149.724C33.328 149.771 33.2623 149.807 33.1919 149.83L33.0114 149.904C32.9239 149.932 32.8426 149.977 32.7718 150.036C32.7602 150.06 32.7395 150.079 32.7143 150.088C32.689 150.097 32.6612 150.095 32.6369 150.084C32.3906 150.16 32.3496 150.026 32.3718 149.827C32.4315 149.782 32.4968 149.746 32.5659 149.718L32.7392 149.643C32.8318 149.618 32.9174 149.572 32.9899 149.509C33.4379 149.215 33.9211 148.98 34.428 148.807Z" fill="#C9D0D0"/>
<path d="M236.715 131.921C236.665 131.909 236.62 131.88 236.587 131.841C236.554 131.801 236.534 131.751 236.531 131.7C236.468 131.659 236.423 131.596 236.406 131.523C236.377 131.515 236.351 131.497 236.336 131.471C236.32 131.445 236.315 131.414 236.321 131.385C236.321 131.329 236.304 131.273 236.272 131.227C236.239 131.181 236.193 131.146 236.14 131.127C236.117 131.042 236.098 130.96 236.079 130.875C236.066 130.821 236.065 130.766 236.076 130.713C236.087 130.659 236.109 130.609 236.141 130.564C236.173 130.52 236.214 130.483 236.262 130.456C236.309 130.429 236.362 130.413 236.416 130.408C236.5 130.41 236.58 130.438 236.647 130.487C236.793 130.629 236.866 130.835 237.055 130.933C237.137 130.977 237.208 131.039 237.261 131.116C237.314 131.192 237.348 131.28 237.361 131.372C236.942 131.322 236.705 131.476 236.715 131.921Z" fill="#1E1B1B"/>
<path d="M27.83 152.095C28.2803 151.801 28.7633 151.56 29.2692 151.378C29.3297 151.333 29.3963 151.296 29.467 151.269L29.6475 151.195C29.8822 151.129 29.9198 151.259 29.8912 151.447C29.8188 151.489 29.7461 151.534 29.6703 151.573C29.6648 151.586 29.6567 151.598 29.6466 151.608C29.6364 151.618 29.6243 151.626 29.611 151.631C29.5977 151.637 29.5835 151.64 29.5692 151.64C29.5548 151.64 29.5406 151.637 29.5274 151.631C29.4225 151.649 29.3257 151.699 29.2505 151.774C29.0331 151.96 28.7729 152.088 28.4933 152.148C28.392 152.171 28.2988 152.22 28.2236 152.292L28.1836 152.34L28.1183 152.335C27.8714 152.419 27.8229 152.287 27.83 152.095Z" fill="#C7D4D4"/>
<path d="M32.3607 149.827L32.6258 150.084C32.228 150.378 31.7863 150.607 31.3171 150.763C31.25 150.755 31.1874 150.725 31.1389 150.678C31.0904 150.63 31.0587 150.569 31.0486 150.502C31.4486 150.211 31.8912 149.983 32.3607 149.827Z" fill="#C6CDCD"/>
<path d="M27.0296 152.855C26.6454 153.154 26.2095 153.38 25.7437 153.521C25.6822 153.508 25.626 153.477 25.5831 153.432C25.5401 153.386 25.5124 153.328 25.5039 153.266C25.9012 152.987 26.3406 152.774 26.8055 152.634C26.8848 152.695 27.0221 152.712 27.0296 152.855Z" fill="#C3CBCB"/>
<path d="M24.9756 153.893C24.5788 154.182 24.1401 154.409 23.6747 154.565C23.6139 154.553 23.5583 154.523 23.5159 154.478C23.4734 154.433 23.4463 154.375 23.4382 154.314C23.835 154.031 24.272 153.81 24.7345 153.656C24.8247 153.718 24.9611 153.746 24.9756 153.893Z" fill="#C1C8C8"/>
<path d="M22.9036 154.926C22.5071 155.214 22.067 155.436 21.6001 155.583C21.5182 155.508 21.3932 155.473 21.3776 155.341C21.7709 155.055 22.2057 154.832 22.6669 154.679C22.756 154.755 22.8924 154.783 22.9036 154.926Z" fill="#BEC4C4"/>
<path d="M31.0499 150.486L31.3185 150.747L31.3003 150.745C31.2512 150.791 31.191 150.823 31.1257 150.838L30.9295 150.925C30.8487 150.962 30.771 151.005 30.6975 151.054C30.4606 151.239 30.1856 151.369 29.8923 151.435L29.6487 151.183C29.83 151.016 30.0563 150.907 30.2995 150.867C30.3612 150.818 30.4306 150.779 30.505 150.751C30.5222 150.724 30.548 150.702 30.5784 150.69C30.6089 150.678 30.6425 150.676 30.6742 150.684C30.768 150.659 30.8542 150.612 30.9251 150.546C30.9285 150.533 30.9346 150.521 30.943 150.511C30.9513 150.501 30.9618 150.493 30.9737 150.487C30.9856 150.481 30.9985 150.478 31.0117 150.478C31.0249 150.478 31.0379 150.481 31.0499 150.486Z" fill="#C9CFCF"/>
<path d="M18.5374 156.751C18.8522 156.526 19.1998 156.352 19.5679 156.234C19.6501 156.306 19.779 156.337 19.7979 156.473C19.345 156.785 18.8503 157.032 18.3284 157.206C18.2851 157.166 18.2571 157.113 18.2494 157.055C18.2417 156.997 18.2549 156.938 18.2865 156.889C18.3952 156.897 18.4598 156.814 18.5374 156.751Z" fill="#C2C6C6"/>
<path d="M19.7987 156.462L19.5687 156.222C19.8851 156 20.2337 155.826 20.6025 155.709C20.6885 155.778 20.8138 155.809 20.8292 155.945C20.5243 156.185 20.1737 156.361 19.7987 156.462Z" fill="#C3CCCC"/>
<path d="M18.2867 156.889L18.3286 157.205C18.0813 157.411 17.7912 157.559 17.4795 157.638C17.4082 157.567 17.2855 157.55 17.2733 157.422C17.5662 157.169 17.9128 156.987 18.2867 156.889Z" fill="#BDC8C8"/>
<path d="M17.322 157.695C17.0748 157.932 16.7638 158.093 16.4269 158.156C16.3559 158.082 16.2259 158.065 16.2179 157.929C16.4634 157.696 16.7698 157.537 17.1018 157.47C17.1844 157.535 17.3139 157.559 17.322 157.695Z" fill="#AEB5B5"/>
<path d="M22.9036 154.927L22.6669 154.679C22.888 154.498 23.1469 154.37 23.4244 154.302L23.6608 154.553C23.4422 154.737 23.1824 154.865 22.9036 154.927Z" fill="#C6CACA"/>
<path d="M16.2878 158.212C16.0412 158.453 15.73 158.617 15.3919 158.685C15.3206 158.614 15.1909 158.593 15.1862 158.461C15.4309 158.228 15.7377 158.07 16.0698 158.006C16.15 158.056 16.2797 158.077 16.2878 158.212Z" fill="#ACB3B3"/>
<path d="M24.9756 153.892L24.7352 153.645C24.9573 153.464 25.2158 153.334 25.493 153.264L25.7328 153.519C25.5153 153.704 25.2551 153.833 24.9756 153.892Z" fill="#C8CECE"/>
<path d="M15.2503 158.728C15.0035 158.964 14.6941 159.125 14.3588 159.19C14.2876 159.119 14.1576 159.102 14.1531 158.967C14.3976 158.731 14.7044 158.571 15.0373 158.504C15.1161 158.572 15.2422 158.593 15.2503 158.728Z" fill="#AAB1B1"/>
<path d="M27.83 152.094L28.1038 152.333C27.8354 152.561 27.5156 152.721 27.1719 152.799C27.0901 152.724 26.9606 152.699 26.9414 152.567C27.1954 152.34 27.5002 152.178 27.83 152.094Z" fill="#C5CDCD"/>
<path d="M14.2161 159.245C13.9658 159.482 13.6526 159.642 13.3138 159.706C13.2425 159.635 13.1086 159.622 13.1081 159.483C13.3529 159.248 13.6596 159.088 13.9923 159.021C14.0892 159.09 14.2077 159.113 14.2161 159.245Z" fill="#A9AFAF"/>
<path d="M10.2445 161.252C9.89962 161.427 9.61005 161.788 9.00145 161.589C9.27466 161.324 9.61334 161.137 9.98279 161.046C10.1973 160.957 10.2391 161.08 10.2445 161.252Z" fill="#B6B7B7"/>
<path d="M20.8283 155.956L20.6017 155.72C20.8229 155.538 21.0818 155.408 21.3594 155.339L21.5819 155.582C21.3626 155.762 21.1048 155.89 20.8283 155.956Z" fill="#CAD3D3"/>
<path d="M10.2445 161.252L9.9828 161.047C10.2549 160.828 10.5668 160.665 10.9012 160.565C10.9912 160.63 11.1128 160.661 11.1167 160.803C10.8587 161.009 10.5622 161.162 10.2445 161.252Z" fill="#A2B2B2"/>
<path d="M123.418 179.641C123.594 180.039 123.701 180.463 123.732 180.897C123.101 180.606 123.384 180.094 123.418 179.641Z" fill="#181919"/>
<path d="M12.0837 160.015C12.3331 159.791 12.6344 159.632 12.9606 159.552C13.0402 159.609 13.1557 159.625 13.1682 159.75C12.9186 159.977 12.6156 160.136 12.2876 160.213C12.2033 160.17 12.092 160.147 12.0837 160.015Z" fill="#C0CACA"/>
<path d="M12.0837 160.015L12.2949 160.213L11.4964 160.602C11.2802 160.666 11.2515 160.561 11.3011 160.386C11.5311 160.206 11.7985 160.079 12.0837 160.015Z" fill="#D5DFDF"/>
<path d="M108.077 139.443C108.385 139.484 108.67 139.624 108.89 139.842C108.879 139.899 108.854 139.952 108.817 139.995C108.779 140.039 108.732 140.073 108.678 140.093C108.642 140.104 108.604 140.104 108.568 140.093C108.532 140.082 108.501 140.06 108.478 140.03C108.347 139.784 107.986 139.881 107.867 139.62L108.077 139.443Z" fill="#4E4444"/>
<path d="M120.952 137.694C120.926 137.554 121.183 137.577 121.115 137.411C121.17 137.31 121.29 137.308 121.372 137.241L121.723 137.42C121.53 137.685 121.261 137.885 120.951 137.993L120.878 137.904C120.88 137.828 120.906 137.755 120.952 137.694Z" fill="#3A3B3B"/>
<path d="M164.237 186.108C164.358 186.394 164.647 186.325 164.863 186.414C164.682 186.587 164.455 186.551 164.236 186.564C164.015 186.631 163.804 186.681 163.845 186.323C163.968 186.238 164.065 186.11 164.237 186.108Z" fill="#E1E2E2"/>
<path d="M123.903 181.298C124.029 181.395 124.125 181.527 124.178 181.677C124.232 181.827 124.241 181.989 124.204 182.144C124.075 182.05 123.977 181.918 123.923 181.767C123.87 181.616 123.863 181.453 123.903 181.298Z" fill="#181919"/>
<path d="M39.1239 146.523C39.2235 146.436 39.3468 146.381 39.478 146.364C39.6092 146.348 39.7422 146.372 39.8599 146.432C39.818 146.525 39.7514 146.605 39.6674 146.663C39.5833 146.721 39.4851 146.755 39.3832 146.761C39.2712 146.698 39.1423 146.666 39.1239 146.523Z" fill="#96ADAD"/>
<path d="M163.845 186.323C163.903 186.524 164.102 186.492 164.236 186.564C164.125 186.622 164.008 186.667 163.886 186.698C163.75 186.713 163.515 186.79 163.508 186.586C163.502 186.381 163.683 186.351 163.845 186.323Z" fill="#949393"/>
<path d="M39.1241 146.523L39.3686 146.764L38.9543 146.941L38.7204 146.704C38.7686 146.644 38.8303 146.597 38.9005 146.565C38.9707 146.534 39.0473 146.519 39.1241 146.523Z" fill="#C2CFCF"/>
<path d="M11.3011 160.388L11.4965 160.603C11.4547 160.665 11.3982 160.716 11.3319 160.751C11.2657 160.786 11.1918 160.804 11.1168 160.804L10.9013 160.566C11.0275 160.487 11.1346 160.372 11.3011 160.388Z" fill="#B7BDBD"/>
<path d="M123.729 180.89C123.796 180.934 123.849 180.997 123.88 181.07C123.912 181.144 123.921 181.225 123.906 181.304C123.689 181.233 123.668 181.079 123.729 180.89Z" fill="#181919"/>
<path d="M13.1754 159.751L12.9678 159.553C12.985 159.529 13.0079 159.511 13.0344 159.499C13.0608 159.487 13.0898 159.481 13.1188 159.484L13.3245 159.707C13.3066 159.728 13.2829 159.743 13.2564 159.751C13.2299 159.759 13.2018 159.759 13.1754 159.751Z" fill="#DBE8E8"/>
<path d="M14.2159 159.246L14.003 159.022C14.0225 159.002 14.046 158.988 14.0719 158.978C14.0978 158.969 14.1255 158.965 14.1529 158.968L14.3586 159.191C14.3405 159.21 14.3183 159.225 14.2936 159.235C14.2689 159.244 14.2423 159.248 14.2159 159.246Z" fill="#DDEAEA"/>
<path d="M15.25 158.729L15.037 158.505C15.0562 158.485 15.0797 158.47 15.1057 158.461C15.1317 158.451 15.1595 158.448 15.187 158.451L15.3927 158.674C15.3746 158.693 15.3524 158.708 15.3277 158.718C15.3029 158.727 15.2764 158.731 15.25 158.729Z" fill="#DDEAEA"/>
<path d="M16.2876 158.213L16.071 157.989C16.0893 157.968 16.1121 157.952 16.1375 157.942C16.1629 157.932 16.1903 157.928 16.2176 157.93L16.4266 158.157C16.4095 158.177 16.388 158.192 16.3638 158.202C16.3396 158.211 16.3135 158.215 16.2876 158.213Z" fill="#DEECEC"/>
<path d="M17.322 157.696L17.1018 157.472C17.1212 157.451 17.1453 157.436 17.1721 157.427C17.1988 157.418 17.2273 157.416 17.255 157.421L17.4613 157.637C17.4452 157.658 17.4238 157.675 17.3994 157.685C17.375 157.695 17.3483 157.699 17.322 157.696Z" fill="#DEEEEE"/>
<path d="M121.372 137.241C121.351 137.292 121.315 137.335 121.269 137.365C121.224 137.396 121.17 137.412 121.115 137.411L121.03 137.427L120.965 137.367C121.014 137.31 121.078 137.268 121.15 137.245C121.222 137.223 121.299 137.222 121.372 137.241Z" fill="#548585"/>
<path d="M26.9415 152.567L27.172 152.8C27.1566 152.822 27.1347 152.839 27.1093 152.849C27.0838 152.859 27.0559 152.861 27.0294 152.854L26.8064 152.619C26.8202 152.597 26.8408 152.58 26.8652 152.57C26.8896 152.561 26.9164 152.56 26.9415 152.567Z" fill="#EAF3F3"/>
<path d="M29.6595 151.574L29.8796 151.448C29.8621 151.491 29.8309 151.526 29.791 151.549C29.7512 151.571 29.7049 151.58 29.6595 151.574Z" fill="#C9CFCF"/>
<path d="M29.4665 151.268L29.2694 151.377L29.4665 151.268Z" fill="#C9CFCF"/>
<path d="M30.6954 151.08L30.9267 150.952C30.905 150.993 30.8715 151.028 30.8303 151.051C30.7892 151.073 30.7423 151.083 30.6954 151.08Z" fill="#C7CCCC"/>
<path d="M29.2395 151.776C29.2693 151.731 29.3103 151.693 29.3587 151.668C29.4071 151.643 29.4611 151.631 29.5155 151.633C29.4878 151.681 29.4472 151.72 29.3983 151.745C29.3494 151.77 29.2944 151.781 29.2395 151.776Z" fill="#C9CFCF"/>
<path d="M28.209 152.294C28.2375 152.249 28.2772 152.212 28.3244 152.187C28.3715 152.161 28.4243 152.149 28.4777 152.15C28.4506 152.197 28.4112 152.235 28.3637 152.26C28.3162 152.286 28.2626 152.297 28.209 152.294Z" fill="#C5CDCD"/>
<path d="M31.1141 150.847C31.1703 150.816 31.2264 150.784 31.2859 150.756L31.1141 150.847Z" fill="#C7CCCC"/>
<path d="M30.5049 150.745L30.3 150.861L30.5049 150.745Z" fill="#C7CCCC"/>
<path d="M236.879 132.163C236.829 132.154 236.785 132.125 236.756 132.084C236.727 132.042 236.716 131.991 236.724 131.941C236.773 131.951 236.816 131.98 236.845 132.022C236.874 132.063 236.886 132.113 236.879 132.163Z" fill="#1E1B1B"/>
<path d="M237.36 131.383C237.386 131.386 237.41 131.394 237.432 131.406C237.454 131.419 237.474 131.436 237.489 131.456C237.505 131.476 237.516 131.499 237.522 131.524C237.528 131.548 237.53 131.574 237.526 131.599C237.477 131.589 237.434 131.561 237.403 131.522C237.373 131.482 237.358 131.433 237.36 131.383Z" fill="#1E1B1B"/>
<path d="M18.5367 156.751C18.5121 156.796 18.4758 156.833 18.4316 156.859C18.3874 156.884 18.337 156.897 18.286 156.896C18.3076 156.849 18.3433 156.81 18.3882 156.784C18.4332 156.758 18.485 156.746 18.5367 156.751Z" fill="#BDC8C8"/>
<path d="M30.9247 150.54L30.6746 150.677L30.9247 150.54Z" fill="#C7CCCC"/>
<path d="M32.7611 150.035L32.9998 149.904C32.9777 149.947 32.9431 149.982 32.9006 150.006C32.858 150.029 32.8094 150.039 32.7611 150.035Z" fill="#C9CFCF"/>
<path d="M33.1811 149.829L33.3744 149.723L33.1811 149.829Z" fill="#C9CFCF"/>
<path d="M32.5654 149.714L32.3718 149.823L32.5654 149.714Z" fill="#C9CFCF"/>
<path d="M32.9894 149.505L32.7395 149.639L32.9894 149.505Z" fill="#C9CFCF"/>
<path d="M34.8219 149C34.8466 148.957 34.8826 148.922 34.9261 148.898C34.9695 148.874 35.0187 148.863 35.0682 148.866C35.0465 148.911 35.011 148.949 34.9667 148.973C34.9225 148.997 34.8718 149.006 34.8219 149Z" fill="#CBD2D2"/>
<path d="M35.0527 148.49C35.0314 148.533 34.9976 148.569 34.9556 148.593C34.9137 148.618 34.8655 148.628 34.8173 148.625C34.8364 148.58 34.8698 148.542 34.9123 148.518C34.9548 148.494 35.0041 148.484 35.0527 148.49Z" fill="#CBD2D2"/>
<path d="M35.2418 148.795L35.4428 148.683C35.4275 148.722 35.3991 148.755 35.3624 148.775C35.3257 148.795 35.2831 148.803 35.2418 148.795Z" fill="#CBD2D2"/>
<path d="M34.633 148.676L34.4443 148.785C34.4579 148.748 34.4843 148.716 34.5188 148.696C34.5533 148.677 34.5938 148.669 34.633 148.676Z" fill="#CBD2D2"/>
<path d="M229.582 123.465C229.252 123.44 229.086 123.176 228.89 122.961C228.381 122.412 227.957 121.797 227.335 121.339C227.081 121.122 226.916 120.821 226.87 120.491C226.832 120.398 226.828 120.296 226.858 120.201C226.887 120.107 226.949 120.025 227.032 119.971C227.081 119.94 227.136 119.919 227.194 119.91C227.251 119.901 227.309 119.905 227.365 119.919C227.421 119.934 227.474 119.96 227.519 119.996C227.565 120.032 227.602 120.077 227.63 120.128C228.133 120.994 229.041 121.485 229.615 122.286C229.801 122.51 230.004 122.721 230.221 122.915C230.029 123.121 229.815 123.306 229.582 123.465Z" fill="#E9E9E9"/>
<path d="M229.582 123.464C229.585 123.037 229.772 122.822 230.217 122.914C230.527 123.261 230.964 123.505 231.141 123.971C230.949 124.175 230.736 124.358 230.506 124.518C230.125 124.237 229.81 123.878 229.582 123.464Z" fill="#DCDCDC"/>
<path d="M230.506 124.518C230.495 124.076 230.709 123.896 231.141 123.972C231.197 124.047 231.26 124.116 231.33 124.179C231.383 124.257 231.448 124.327 231.522 124.387C231.764 124.542 231.959 124.761 232.084 125.019C231.893 125.231 231.673 125.413 231.431 125.561C231.177 125.429 230.977 125.211 230.868 124.947C230.807 124.876 230.751 124.799 230.687 124.732C230.626 124.662 230.574 124.585 230.506 124.518Z" fill="#CECECE"/>
<path d="M233.403 127.751C233.251 127.661 233.133 127.524 233.067 127.361C233.06 127.308 233.04 127.257 233.009 127.214C232.978 127.17 232.937 127.135 232.889 127.11C232.876 127.063 232.853 127.019 232.822 126.981C232.791 126.943 232.752 126.912 232.709 126.889C232.701 126.119 233.116 126.318 233.518 126.552L233.542 126.572C233.614 126.614 233.672 126.677 233.707 126.752C233.951 126.9 234.137 127.126 234.235 127.394C233.955 127.533 233.659 127.595 233.403 127.751Z" fill="#A3A1A1"/>
<path d="M233.5 126.551C233.166 126.526 232.783 126.392 232.691 126.888C232.451 126.74 232.259 126.526 232.139 126.271C232.03 125.836 231.964 125.444 232.642 125.648C232.933 125.947 233.342 126.127 233.5 126.551Z" fill="#B3B2B2"/>
<path d="M232.641 125.648C232.222 125.649 232.179 125.978 232.139 126.266L231.604 125.774C231.538 125.717 231.482 125.65 231.436 125.576C231.406 125.099 231.684 124.989 232.089 125.034C232.322 125.189 232.512 125.4 232.641 125.648Z" fill="#C1C0C0"/>
<path d="M234.718 129.37C234.671 129.357 234.629 129.331 234.596 129.295C234.563 129.259 234.541 129.214 234.533 129.166C234.464 129.119 234.412 129.051 234.383 128.973L234.36 128.942C234.227 128.866 234.294 128.652 234.127 128.596C234.046 127.93 234.415 128.016 234.829 128.178C234.841 128.232 234.867 128.282 234.906 128.321C234.944 128.361 234.992 128.389 235.046 128.402C235.09 128.415 235.129 128.443 235.156 128.481C235.183 128.518 235.196 128.564 235.194 128.61C235.093 128.895 234.93 129.154 234.718 129.37Z" fill="#717070"/>
<path d="M235.443 130.252C235.395 130.239 235.351 130.213 235.318 130.175C235.285 130.137 235.264 130.091 235.259 130.041C235.198 129.975 235.144 129.904 235.096 129.828C234.93 129.506 234.866 129.202 235.254 128.983C235.364 128.972 235.474 129 235.565 129.061C235.58 129.109 235.605 129.153 235.638 129.19C235.671 129.228 235.712 129.258 235.757 129.28C235.791 129.376 235.861 129.455 235.952 129.502C235.999 129.514 236.042 129.541 236.071 129.581C236.1 129.621 236.114 129.669 236.11 129.718C235.908 129.92 235.685 130.099 235.443 130.252Z" fill="#555353"/>
<path d="M233.403 127.75C233.568 127.157 233.568 127.157 234.217 127.392C234.314 127.516 234.406 127.643 234.502 127.778C234.319 128.026 234.021 128.066 233.768 128.182L233.592 128.001C233.59 127.946 233.572 127.893 233.541 127.848C233.509 127.803 233.465 127.768 233.414 127.747L233.403 127.75Z" fill="#8F8D8D"/>
<path d="M111.533 140.817L113.008 140.596C113.093 140.639 113.158 140.713 113.19 140.803C112.808 141.001 112.378 141.085 111.95 141.045C111.834 140.931 111.605 141.02 111.533 140.817Z" fill="#4E3B3B"/>
<path d="M235.443 130.251C235.433 129.802 235.661 129.633 236.086 129.698C236.134 129.778 236.195 129.85 236.268 129.908C236.315 129.925 236.356 129.955 236.387 129.995C236.418 130.035 236.436 130.083 236.44 130.133C236.412 130.163 236.385 130.195 236.36 130.229C236.178 130.328 236.021 130.467 235.9 130.635L235.786 130.693C235.738 130.679 235.695 130.651 235.664 130.612C235.633 130.573 235.615 130.525 235.613 130.475C235.567 130.395 235.511 130.321 235.447 130.255L235.443 130.251Z" fill="#434040"/>
<path d="M233.769 128.175C233.861 127.762 234.182 127.768 234.503 127.77C234.583 127.814 234.655 127.873 234.712 127.945C234.769 128.017 234.811 128.1 234.836 128.189C234.518 128.191 234.214 128.212 234.134 128.607C234.089 128.6 234.048 128.579 234.017 128.547C233.986 128.515 233.966 128.474 233.961 128.43C233.96 128.372 233.942 128.316 233.909 128.268C233.876 128.22 233.83 128.183 233.777 128.161L233.769 128.175Z" fill="#828282"/>
<path d="M235.333 129.055C235.027 129.236 235.128 129.55 235.086 129.813C235.038 129.798 234.995 129.77 234.962 129.732C234.929 129.694 234.907 129.648 234.898 129.598C234.833 129.545 234.78 129.477 234.745 129.401L234.722 129.37C234.747 129.036 234.693 128.638 235.19 128.617C235.202 128.667 235.227 128.713 235.261 128.751C235.295 128.789 235.337 128.818 235.385 128.836C235.401 128.873 235.404 128.915 235.394 128.954C235.385 128.993 235.363 129.028 235.333 129.055Z" fill="#626262"/>
<path d="M118.45 138.962C118.772 138.733 119.136 138.572 119.521 138.488C119.57 138.532 119.625 138.569 119.684 138.599C119.682 138.631 119.698 138.665 119.702 138.698C119.388 138.923 119.029 139.08 118.651 139.159C118.575 139.102 118.456 139.086 118.45 138.962Z" fill="#574646"/>
<path d="M113.175 140.801L112.993 140.595L114.195 140.32C114.29 140.367 114.401 140.397 114.428 140.523C114.421 140.558 114.401 140.588 114.374 140.61C114.346 140.632 114.312 140.644 114.277 140.643L114.208 140.638L114.16 140.689C114.018 140.788 113.845 140.764 113.692 140.815L113.175 140.801Z" fill="#1F1414"/>
<path d="M117.457 139.321L118.296 139.019C118.335 139.036 118.37 139.061 118.398 139.092C118.426 139.124 118.446 139.162 118.458 139.203C118.23 139.388 117.954 139.507 117.663 139.544C117.443 139.612 117.418 139.497 117.457 139.321Z" fill="#3D2323"/>
<path d="M114.394 140.255C114.63 140.021 114.952 140.06 115.242 139.986C115.329 140.04 115.451 140.06 115.456 140.196C115.292 140.428 114.955 140.308 114.779 140.51C114.751 140.533 114.716 140.547 114.679 140.55C114.643 140.553 114.606 140.545 114.574 140.527C114.488 140.456 114.425 140.362 114.394 140.255Z" fill="#565151"/>
<path d="M115.588 139.936C115.844 139.768 116.143 139.676 116.45 139.672C116.538 139.708 116.609 139.778 116.647 139.866C116.396 140.051 116.094 140.155 115.782 140.165C115.712 140.076 115.59 140.056 115.588 139.936Z" fill="#4E4545"/>
<path d="M117.457 139.321L117.663 139.537C117.415 139.722 117.116 139.827 116.806 139.838C116.725 139.792 116.662 139.721 116.628 139.635C116.871 139.457 117.157 139.349 117.457 139.321Z" fill="#514747"/>
<path d="M109.635 140.161C109.925 140.239 110.196 140.374 110.433 140.557C110.337 140.724 110.152 140.612 110.023 140.679C109.808 140.575 109.547 140.556 109.412 140.32C109.414 140.287 109.435 140.256 109.444 140.227L109.635 140.161Z" fill="#453E3E"/>
<path d="M110.023 140.678C110.079 140.631 110.145 140.595 110.215 140.574C110.286 140.553 110.36 140.547 110.433 140.556C110.651 140.556 110.861 140.635 111.025 140.779C111.016 140.909 110.877 140.91 110.79 140.958C110.515 140.928 110.252 140.832 110.023 140.678Z" fill="#3D3939"/>
<path d="M120.134 138.147C120.318 137.988 120.535 137.87 120.768 137.8C120.813 137.829 120.852 137.865 120.884 137.907L120.94 137.992C120.779 138.164 120.575 138.289 120.348 138.352C120.122 138.452 120.106 138.316 120.134 138.147Z" fill="#443838"/>
<path d="M110.79 140.959L111.025 140.78L111.533 140.818L111.95 141.046C111.561 141.093 111.167 141.064 110.79 140.959Z" fill="#090707"/>
<path d="M108.669 140.009L108.89 139.843C109.102 139.862 109.3 139.959 109.445 140.114L109.437 140.223C109.429 140.228 109.422 140.234 109.416 140.241C109.411 140.249 109.406 140.257 109.404 140.266C109.402 140.275 109.401 140.284 109.402 140.294C109.404 140.303 109.407 140.312 109.412 140.32L109.023 140.258C108.95 140.114 108.71 140.202 108.669 140.009Z" fill="#1A0707"/>
<path d="M120.134 138.147L120.348 138.353C120.168 138.524 119.945 138.643 119.702 138.699L119.647 138.618C119.638 138.544 119.658 138.47 119.702 138.41C119.795 138.239 119.969 138.201 120.134 138.147Z" fill="#4A4646"/>
<path d="M237.051 130.941C236.949 130.924 236.853 130.881 236.774 130.816C236.694 130.75 236.633 130.665 236.598 130.568C236.659 130.478 236.718 130.471 236.784 130.563C236.854 130.601 236.915 130.655 236.962 130.721C237.008 130.786 237.039 130.862 237.051 130.941Z" fill="#313030"/>
<path d="M108.67 140.009L109.016 140.257C108.809 140.241 108.581 140.275 108.468 140.03C108.536 140.033 108.604 140.026 108.67 140.009Z" fill="#FDFEFE"/>
<path d="M115.588 139.936L115.783 140.151L115.455 140.203L115.241 139.994L115.588 139.936Z" fill="#270F0F"/>
<path d="M234.131 128.596C234.317 128.64 234.361 128.778 234.364 128.942C234.294 128.915 234.234 128.868 234.193 128.806C234.151 128.744 234.129 128.671 234.131 128.596Z" fill="#828282"/>
<path d="M113.709 140.787C113.768 140.725 113.843 140.68 113.925 140.658C114.008 140.636 114.095 140.637 114.177 140.661C114.123 140.729 114.048 140.778 113.964 140.801C113.879 140.823 113.79 140.818 113.709 140.787Z" fill="#FDFEFE"/>
<path d="M114.571 140.465L114.779 140.517C114.719 140.583 114.64 140.63 114.553 140.65C114.466 140.67 114.375 140.663 114.293 140.63C114.314 140.571 114.348 140.518 114.392 140.473C114.449 140.397 114.511 140.395 114.571 140.465Z" fill="#FDFEFE"/>
<path d="M118.458 139.197L118.297 139.013C118.316 138.992 118.34 138.976 118.367 138.968C118.394 138.959 118.423 138.957 118.45 138.963L118.651 139.16L118.458 139.197Z" fill="#1B0E0E"/>
<path d="M116.627 139.649C116.687 139.715 116.748 139.782 116.805 139.852C116.757 139.88 116.7 139.889 116.646 139.876L116.449 139.683C116.503 139.652 116.565 139.64 116.627 139.649Z" fill="#1E0707"/>
<path d="M236.406 131.522C236.444 131.531 236.477 131.554 236.5 131.586C236.523 131.618 236.533 131.657 236.529 131.697C236.509 131.695 236.489 131.689 236.471 131.679C236.454 131.668 236.438 131.655 236.427 131.638C236.415 131.622 236.407 131.603 236.403 131.583C236.4 131.563 236.4 131.542 236.406 131.522Z" fill="#313030"/>
<path d="M236.14 131.128C236.196 131.142 236.244 131.176 236.277 131.223C236.31 131.27 236.326 131.327 236.321 131.385C236.266 131.368 236.218 131.334 236.186 131.287C236.153 131.241 236.137 131.184 236.14 131.128Z" fill="#313030"/>
<path d="M236.188 130.909C236.182 130.985 236.151 131.059 236.135 131.134C236.085 131.125 236.041 131.098 236.008 131.059C235.976 131.02 235.958 130.971 235.958 130.921C235.996 130.894 236.032 130.865 236.067 130.835L236.188 130.909Z" fill="#434040"/>
<path d="M235.958 130.92C235.91 130.905 235.868 130.876 235.837 130.836C235.807 130.796 235.79 130.747 235.789 130.697L235.854 130.651C235.992 130.661 236.06 130.717 236.02 130.863L235.958 130.92Z" fill="#434040"/>
<path d="M236.783 130.563L236.597 130.567L236.548 130.454L236.63 130.366C236.673 130.379 236.711 130.405 236.738 130.44C236.766 130.475 236.781 130.518 236.783 130.563Z" fill="#434040"/>
<path d="M235.45 130.259C235.496 130.276 235.536 130.305 235.566 130.344C235.595 130.383 235.612 130.43 235.616 130.479C235.567 130.467 235.523 130.439 235.493 130.399C235.463 130.359 235.448 130.309 235.45 130.259Z" fill="#555353"/>
<path d="M236.444 130.137C236.492 130.149 236.535 130.177 236.567 130.215C236.598 130.253 236.617 130.3 236.62 130.35L236.574 130.379C236.528 130.37 236.486 130.346 236.455 130.31C236.424 130.274 236.406 130.229 236.404 130.181L236.444 130.137Z" fill="#434040"/>
<path d="M235.096 129.828L235.258 130.04C235.211 130.029 235.169 130.002 235.139 129.963C235.11 129.924 235.094 129.877 235.096 129.828Z" fill="#626262"/>
<path d="M236.271 129.911C236.222 129.899 236.179 129.873 236.147 129.835C236.115 129.798 236.095 129.751 236.09 129.702C236.14 129.71 236.185 129.736 236.218 129.774C236.251 129.812 236.27 129.861 236.271 129.911Z" fill="#555353"/>
<path d="M234.745 129.401L234.898 129.597C234.853 129.588 234.813 129.563 234.785 129.527C234.757 129.491 234.743 129.446 234.745 129.401Z" fill="#717070"/>
<path d="M235.927 129.481C235.876 129.469 235.83 129.441 235.795 129.401C235.76 129.361 235.738 129.312 235.733 129.26C235.784 129.271 235.831 129.299 235.866 129.339C235.901 129.379 235.922 129.428 235.927 129.481Z" fill="#626262"/>
<path d="M235.739 129.266C235.688 129.255 235.643 129.227 235.608 129.188C235.574 129.149 235.553 129.1 235.548 129.048C235.6 129.058 235.647 129.084 235.682 129.124C235.716 129.163 235.737 129.214 235.739 129.266Z" fill="#626262"/>
<path d="M234.383 128.973L234.532 129.165C234.488 129.155 234.449 129.131 234.422 129.096C234.395 129.061 234.381 129.017 234.383 128.973Z" fill="#828282"/>
<path d="M235.333 129.054C235.338 128.978 235.344 128.906 235.378 128.832C235.428 128.843 235.473 128.87 235.505 128.909C235.537 128.949 235.555 128.998 235.555 129.049L235.333 129.054Z" fill="#717070"/>
<path d="M235.38 128.853C235.328 128.844 235.28 128.818 235.245 128.778C235.209 128.738 235.188 128.688 235.185 128.635C235.237 128.645 235.285 128.672 235.32 128.711C235.355 128.75 235.376 128.8 235.38 128.853Z" fill="#717070"/>
<path d="M235.041 128.408C234.985 128.403 234.932 128.377 234.892 128.337C234.853 128.296 234.829 128.242 234.825 128.185C234.879 128.198 234.927 128.226 234.965 128.266C235.003 128.305 235.03 128.355 235.041 128.408Z" fill="#828282"/>
<path d="M233.777 128.162C233.833 128.18 233.881 128.216 233.915 128.264C233.948 128.313 233.964 128.371 233.96 128.43C233.909 128.405 233.866 128.367 233.834 128.32C233.802 128.273 233.782 128.218 233.777 128.162Z" fill="#8F8D8D"/>
<path d="M233.415 127.74C233.469 127.755 233.516 127.789 233.549 127.835C233.581 127.881 233.596 127.937 233.592 127.993L233.415 127.74Z" fill="#A3A1A1"/>
<path d="M232.872 127.099C232.925 127.116 232.971 127.149 233.003 127.194C233.035 127.239 233.051 127.293 233.05 127.349L232.872 127.099Z" fill="#B3B2B2"/>
<path d="M232.695 126.884C232.744 126.897 232.788 126.926 232.82 126.965C232.853 127.005 232.871 127.054 232.874 127.105C232.827 127.089 232.784 127.06 232.752 127.021C232.721 126.982 232.701 126.934 232.695 126.884Z" fill="#B3B2B2"/>
<path d="M233.687 126.748L233.524 126.571C233.568 126.576 233.608 126.597 233.638 126.629C233.668 126.662 233.685 126.704 233.687 126.748Z" fill="#B3B2B2"/>
<path d="M231.436 125.576L231.603 125.774L231.436 125.576Z" fill="#CECECE"/>
<path d="M230.69 124.733L230.87 124.946L230.69 124.733Z" fill="#DCDCDC"/>
<path d="M230.506 124.518L230.686 124.732L230.506 124.518Z" fill="#DCDCDC"/>
<path d="M231.521 124.386L231.33 124.179L231.521 124.386Z" fill="#DCDCDC"/>
<path d="M231.329 124.175L231.141 123.968L231.329 124.175Z" fill="#DCDCDC"/>
<path d="M30.9442 155.839C30.8339 155.852 30.7221 155.833 30.6223 155.784C30.5225 155.735 30.4389 155.659 30.3815 155.564C30.3137 155.468 30.2814 155.351 30.2902 155.234C30.2989 155.117 30.3482 155.007 30.4295 154.922C30.5939 154.763 30.7822 154.63 30.9876 154.53L36.4002 151.683L36.7523 151.509C36.8161 151.469 36.8873 151.443 36.9616 151.432C37.0358 151.42 37.1115 151.425 37.1842 151.444C37.2568 151.463 37.3247 151.496 37.3839 151.543C37.443 151.589 37.4922 151.647 37.5283 151.712C37.5742 151.782 37.6044 151.861 37.6166 151.944C37.6289 152.027 37.623 152.111 37.5993 152.191C37.5756 152.271 37.5346 152.345 37.4794 152.408C37.4241 152.471 37.3558 152.521 37.2793 152.554C37.1414 152.642 36.9904 152.711 36.8461 152.788L31.6079 155.546C31.4065 155.683 31.1815 155.783 30.9442 155.839Z" fill="#040404"/>
<path d="M45.4543 173.923C44.7956 174.053 44.0121 173.706 43.2686 173.264C41.757 172.367 41.7311 170.472 43.2195 169.537C43.6888 169.224 44.2383 169.051 44.8027 169.04C48.5981 169.043 52.3948 169.029 56.193 169.043C57.0276 169.028 57.8372 169.328 58.4599 169.884C58.7442 170.112 58.9657 170.409 59.1032 170.746C59.2408 171.084 59.29 171.451 59.2461 171.813C59.2022 172.174 59.0667 172.519 58.8524 172.814C58.6382 173.109 58.3522 173.344 58.0216 173.497C57.5521 173.742 57.0291 173.867 56.4994 173.861L48.6759 173.895L45.4543 173.923Z" fill="#050303"/>
<path d="M65.2991 174.422C64.6385 174.576 63.9037 174.164 63.1909 173.75C62.8677 173.578 62.5947 173.326 62.399 173.017C62.2034 172.707 62.0918 172.353 62.0753 171.987C62.0589 171.622 62.1381 171.258 62.3052 170.933C62.4723 170.607 62.7214 170.331 63.028 170.131C63.5311 169.747 64.1459 169.537 64.7792 169.533C68.5417 169.538 72.3052 169.528 76.0822 169.534C76.9163 169.516 77.7289 169.799 78.3705 170.332C79.6767 171.44 79.4739 173.223 77.9596 174.017C77.4858 174.255 76.9615 174.376 76.4311 174.369L65.2991 174.422Z" fill="#040303"/>
<path d="M217.824 166.49L218.029 166.324C218.025 166.385 218.02 166.443 218.016 166.504L217.824 166.49Z" fill="#251E1E"/>
<path d="M114.571 140.465L114.482 140.492L114.391 140.485L114.21 140.318C114.235 140.296 114.264 140.28 114.296 140.271C114.327 140.262 114.361 140.261 114.393 140.266L114.571 140.465Z" fill="#1B0505"/>
<path d="M119.701 138.421C119.695 138.49 119.665 138.56 119.645 138.628C119.613 138.623 119.584 138.608 119.561 138.584C119.538 138.561 119.524 138.531 119.52 138.499L119.701 138.421Z" fill="#170000"/>
<path d="M120.884 137.907C120.857 137.901 120.832 137.888 120.812 137.87C120.791 137.851 120.776 137.827 120.769 137.8L120.951 137.694L120.884 137.907Z" fill="#160000"/>
<path d="M109.437 140.223L109.445 140.114L109.634 140.161L109.437 140.223Z" fill="#230404"/>
<path d="M218.03 166.324C218.078 166.055 218.025 165.777 217.88 165.544C218.043 165.545 218.205 165.557 218.366 165.58C218.654 165.635 218.86 165.799 218.793 166.115C218.726 166.431 218.445 166.337 218.225 166.343C218.16 166.338 218.095 166.326 218.03 166.324Z" fill="#251E1E"/>
<path d="M236.404 130.181L236.575 130.38C236.592 130.436 236.596 130.494 236.587 130.552C236.33 130.533 236.214 130.67 236.196 130.909C236.138 130.901 236.082 130.886 236.028 130.864L235.862 130.651C235.8 130.216 235.966 130.042 236.404 130.181Z" fill="#313030"/>
<path d="M55.6434 169.615C55.8211 169.629 56.1474 169.653 56.4774 169.678C56.7074 169.695 56.9352 169.734 57.1577 169.794C58.0526 170.066 58.7247 170.878 58.7039 171.642C58.6831 172.406 57.9586 173.074 56.9503 173.246C56.6895 173.279 56.4265 173.29 56.1639 173.279C53.1944 173.299 50.2274 173.32 47.2627 173.341C46.2113 173.39 45.1585 173.278 44.141 173.009C43.8245 172.921 43.5303 172.768 43.2778 172.558C43.1069 172.427 42.9671 172.26 42.8686 172.069C42.77 171.878 42.7151 171.667 42.7079 171.452C42.7006 171.237 42.7412 171.023 42.8266 170.825C42.912 170.628 43.0402 170.452 43.2019 170.31C43.4138 170.101 43.6652 169.935 43.9414 169.824C44.2176 169.713 44.5132 169.657 44.811 169.661L52.1278 169.626C53.2482 169.611 54.3701 169.626 55.6434 169.615Z" fill="white"/>
<path d="M75.6118 170.122L76.5762 170.195C76.9398 170.221 77.2916 170.335 77.6014 170.527C78.2559 170.94 78.7417 171.465 78.6139 172.294C78.4862 173.123 77.902 173.524 77.1382 173.693C76.1629 173.912 75.1699 173.783 74.1841 173.8C71.8142 173.849 69.441 173.842 67.0681 173.832C66.0499 173.882 65.0305 173.766 64.0493 173.49C63.1884 173.203 62.6554 172.627 62.6701 171.895C62.6848 171.163 63.197 170.556 64.0383 170.276C64.745 170.041 65.4814 170.14 66.1967 170.132C69.255 170.095 72.3306 170.117 75.6118 170.122Z" fill="white"/>
<line x1="58.3173" y1="192.719" x2="58.3173" y2="277.291" stroke="black" stroke-dasharray="2 2"/>
<line x1="143.598" y1="276.583" x2="59.0255" y2="276.583" stroke="black" stroke-dasharray="2 2"/>
<line x1="87.5219" y1="277.291" x2="87.5219" y2="247.087" stroke="black" stroke-dasharray="2 2"/>
<line x1="57.8173" y1="247.795" x2="88.0218" y2="247.795" stroke="black" stroke-dasharray="2 2"/>
</svg>
