<svg width="163" height="45" viewBox="0 0 163 45" fill="none" xmlns="http://www.w3.org/2000/svg">
<g clip-path="url(#clip0)">
<path d="M38.9342 5.26929C51.3359 5.26929 63.7376 5.26929 76.1392 5.26929C91.4471 5.26929 106.743 5.26929 122.038 5.42089C134.79 5.58415 147.53 5.42089 160.27 5.52584C161.886 5.52584 162.237 5.9923 162.274 7.42667C162.55 17.0474 162.738 26.6798 163.001 36.3006C163.16 37.8079 162.913 39.3284 162.283 40.7249C161.653 42.1214 160.66 43.3501 159.393 44.3004C158.837 44.7531 158.128 45.0091 157.389 45.0234C136.632 44.9301 115.875 44.8018 95.1175 44.7552C68.811 44.7552 42.4292 44.7552 16.0851 44.6386C15.1043 44.6921 14.1222 44.5556 13.201 44.2377C12.2798 43.9198 11.4394 43.4275 10.733 42.7918C10.0266 42.1561 9.46953 41.3909 9.09705 40.5446C8.72456 39.6983 8.54474 38.7892 8.56895 37.8749C8.56895 33.117 8.56895 28.3474 8.68169 23.5895C8.727 23.2015 8.65898 22.8092 8.48481 22.4542C8.31063 22.0991 8.03675 21.7943 7.69206 21.5721C5.6627 20.1727 3.75861 18.7267 1.72924 17.3156C1.11549 16.9773 0.628659 16.4711 0.335019 15.866C0.0413783 15.2608 -0.0448006 14.5862 0.0882143 13.9338C0.192125 13.1503 0.526776 12.4089 1.05516 11.7915C1.58354 11.1741 2.28507 10.7047 3.08215 10.4353C5.1992 9.81728 6.79012 8.3246 8.76938 7.38002C9.16593 7.15024 9.61415 7.00887 10.0791 6.96695C10.544 6.92503 11.013 6.98368 11.4496 7.13834C11.8861 7.29299 12.2784 7.53946 12.5957 7.85852C12.9131 8.17757 13.147 8.56058 13.2791 8.97765C13.5296 10.0388 13.7676 10.8435 15.1456 10.9951C15.584 10.9951 15.9849 11.4849 16.3983 11.7881C19.3045 13.9688 19.9685 14.0038 23.0626 12.0679L20.8328 9.73565C20.695 9.31583 19.9183 8.7794 21.0708 8.56949C21.4663 8.68509 21.8069 8.92394 22.0354 9.24586C22.468 9.99663 23.1488 10.5977 23.9771 10.9601C24.9166 11.1234 25.4803 10.3887 26.2319 10.1088C26.5827 9.92223 27.0211 9.85226 27.2967 9.5374C27.209 9.10592 26.7079 9.04762 26.4699 8.76774C26.0037 8.25875 25.6351 7.67888 25.3801 7.0535C25.3171 6.8726 25.3239 6.6769 25.3994 6.50019C25.4749 6.32348 25.6143 6.17684 25.7935 6.08559C27.0462 6.22553 27.2717 7.57827 28.374 7.84648L28.6371 7.99808C28.7228 8.04857 28.8155 8.08781 28.9127 8.1147C28.9127 8.03306 28.7999 8.1147 28.7498 8.0214C28.0107 7.48497 27.0336 7.25174 26.8082 6.24885C26.8059 6.13769 26.8392 6.02841 26.9039 5.93494C26.9686 5.84148 27.0618 5.76808 27.1714 5.72409C27.6336 5.65479 28.1074 5.72423 28.5244 5.92233C28.6557 5.9852 28.7778 6.06359 28.8876 6.15556C29.0296 6.34761 29.2156 6.50791 29.4323 6.62488C29.6489 6.74185 29.8908 6.81257 30.1403 6.83193C30.2816 6.86412 30.4199 6.90703 30.5537 6.96021C30.7936 7.11655 31.0718 7.21446 31.3628 7.24502C31.6539 7.27557 31.9485 7.23779 32.2198 7.13513C32.6606 6.8953 33.0795 6.62228 33.4725 6.31882C33.8972 6.10442 34.3846 6.02266 34.863 6.08559L36.4163 5.45587C36.955 5.30427 37.0301 5.63079 37.0802 5.9923C36.8548 6.82027 36.0906 7.15845 35.3891 7.44999C27.873 11.2983 20.3568 15.0533 12.8406 18.9249C12.7279 18.9832 12.6402 19.0182 12.6277 19.1115C14.7071 19.1115 16.7991 19.1115 18.8911 19.1115C19.315 19.1352 19.7381 19.055 20.1184 18.8791C20.4986 18.7031 20.8227 18.4375 21.0583 18.1086C21.6567 17.3111 22.4381 16.6473 23.3458 16.1653C24.2536 15.6832 25.265 15.395 26.3071 15.3215C26.6748 15.3085 27.0349 15.2203 27.3618 15.0631C27.6887 14.9059 27.9745 14.6835 28.1987 14.4119C29.1674 13.2844 30.5268 12.5053 32.0444 12.2079C32.32 12.1496 32.7083 12.1379 32.8336 11.9397C34.0863 9.98054 36.5917 9.72398 38.3079 8.35959C39.2599 7.57827 40.6379 7.61325 41.6902 6.70365C40.7005 6.45876 39.8236 6.70365 39.0219 6.40045C38.571 6.08559 38.1701 5.71242 38.9342 5.26929Z" fill="black"/>
<path d="M27.4089 5.81711L26.9705 6.19028C26.5947 6.33022 26.3943 6.06201 26.1562 5.86376C25.4297 5.14075 23.6509 5.35065 23.939 3.76469C23.488 5.40896 25.2668 5.14075 25.9934 5.78213C26.0471 5.83604 26.0769 5.90685 26.0769 5.98037C26.0769 6.0539 26.0471 6.12471 25.9934 6.17862C25.6176 6.3652 25.7053 6.70339 25.6677 7.00659C25.2919 7.37976 25.1791 7.00659 24.9912 6.82C24.653 6.28357 24.0141 6.59843 23.5632 6.37687C22.2353 5.92207 22.5234 4.81422 22.4984 4.17284C22.8116 4.61598 21.6591 5.58388 22.774 6.21361C23.3126 6.56345 24.0267 6.41185 24.5528 6.62176C25.3796 7.37976 25.8055 8.45262 26.8202 9.03569C27.2544 9.19732 27.6734 9.39235 28.0729 9.61877C27.6595 10.1435 26.9956 10.1435 26.4068 10.3068C26.056 10.3068 25.6552 10.3068 25.4673 10.0153C24.5968 8.71363 23.2107 7.78355 21.609 7.4264C20.8699 7.28646 20.8824 6.43517 20.8323 5.79379C20.7822 5.15241 20.9075 4.47604 20.018 4.24281C19.7174 4.10287 19.3541 3.99792 19.5295 3.56644C20.7822 1.98048 23.0245 2.09709 24.653 1.10586C25.4046 0.639402 26.2815 -0.141919 27.4089 0.487802C27.4771 0.560146 27.5262 0.646316 27.5523 0.739447C27.5784 0.832578 27.5808 0.930096 27.5593 1.02423C27.4833 1.27881 27.3783 1.5251 27.2461 1.75891C27.1148 1.98771 27.0139 2.23048 26.9454 2.48192C26.9099 2.74128 26.9784 3.00374 27.138 3.21895C27.2975 3.43415 27.5367 3.58696 27.8098 3.64807C28.0732 3.76804 28.3177 3.92106 28.5364 4.10287C28.8871 4.40607 29.075 4.86087 29.526 5.07078C29.6397 5.10634 29.7574 5.12981 29.8767 5.14075C30.0565 5.12925 30.2296 5.07285 30.3778 4.97748C30.5418 4.86995 30.7183 4.77998 30.904 4.70927C31.0453 4.69164 31.1885 4.69164 31.3299 4.70927C31.463 4.75934 31.5859 4.83034 31.6932 4.91918C32.2193 5.52558 33.5346 5.38564 33.472 6.54013C33.3696 6.76505 33.212 6.96449 33.0119 7.12246C32.8117 7.28043 32.5746 7.39252 32.3195 7.44973C31.6705 7.51911 31.0133 7.42654 30.4154 7.18151H30.0145C29.6012 6.80834 29.0249 6.6684 28.6742 6.22527C28.5453 6.03272 28.3494 5.88716 28.1191 5.81288C27.8888 5.7386 27.6382 5.74009 27.4089 5.81711Z" fill="#0C0C0C"/>
<path d="M19.4418 3.56665C19.507 3.69157 19.6114 3.79519 19.741 3.86387C19.8707 3.93256 20.0197 3.9631 20.1684 3.95148C20.3813 4.63951 19.6297 5.11763 19.6047 5.68905C19.6199 6.27335 19.8703 6.83104 20.3062 7.25169C20.682 7.68316 21.4461 7.98636 21.0703 8.75602C20.2686 8.91928 21.0703 9.44405 20.8198 9.73559C20.1842 9.22939 19.5779 8.69221 19.0034 8.1263C17.6379 6.63363 17.7883 5.22259 19.4418 3.56665Z" fill="#121212"/>
<path d="M28.4111 4.28966L27.5593 3.89317C27.0706 3.47601 26.7482 2.91692 26.6448 2.3072C26.6338 2.18848 26.6614 2.06943 26.7239 1.96546C26.7864 1.8615 26.8811 1.77742 26.9956 1.72412C27.3338 1.37428 27.8098 2.47046 28.0979 1.63083C28.1664 1.51282 28.2654 1.4126 28.3861 1.33929C28.8871 2.64538 30.4029 3.11184 31.1295 4.23135C31.1295 4.23135 31.0668 4.32464 31.0418 4.38295C30.9486 4.45442 30.8478 4.51693 30.7411 4.56953L30.4154 4.73279L30.2401 4.80276C30.1131 4.83447 29.983 4.854 29.8517 4.86107C29.7184 4.87253 29.5842 4.87253 29.4509 4.86107C29.0124 4.7911 28.812 4.47624 28.4111 4.28966Z" fill="#171717"/>
<path d="M33.472 6.4937C33.0962 5.61909 31.7934 5.77069 31.4176 4.89608C31.3186 4.82045 31.209 4.75768 31.0919 4.70949L30.9666 4.58121C30.9456 4.52627 30.9453 4.4663 30.9658 4.41118C30.9863 4.35607 31.0263 4.3091 31.0794 4.27802C32.2318 5.071 33.8228 5.10598 34.8374 6.14386C34.4992 6.51703 33.9355 6.3421 33.472 6.4937Z" fill="#0D0D0D"/>
<path d="M36.8793 6.14388C36.8859 6.0005 36.845 5.8587 36.7621 5.73771C36.6791 5.61672 36.5583 5.52239 36.4158 5.46751C37.2131 5.17844 38.083 5.10961 38.9212 5.26927C38.804 5.38413 38.7387 5.5365 38.7387 5.69491C38.7387 5.85333 38.804 6.00569 38.9212 6.12056C38.7938 6.2547 38.6376 6.36253 38.4628 6.4371C38.2879 6.51166 38.0982 6.55132 37.9058 6.55352C37.7135 6.55572 37.5228 6.5204 37.346 6.44985C37.1692 6.3793 37.0102 6.27507 36.8793 6.14388Z" fill="#1E1E1E"/>
<path d="M28.3736 1.33933L28.2859 1.82911C28.05 1.83928 27.8189 1.76531 27.6397 1.62229C27.4604 1.47926 27.3466 1.27796 27.3213 1.05945V0.488037C27.8599 0.569668 28.3109 0.74459 28.3736 1.33933Z" fill="#1E1E1E"/>
<path d="M85.6467 36.9535H11.7378C9.54554 36.9535 9.53301 36.9535 9.55806 34.8311C9.55806 30.5396 9.70839 26.2599 9.65828 22.0034C9.65828 20.5807 10.1844 20.3125 11.625 20.3125C60.1543 20.4058 108.688 20.4758 157.226 20.5224C158.629 20.5224 160.47 19.951 161.309 20.7673C162.149 21.5836 161.648 23.1579 161.673 24.4174C161.76 28.1141 161.748 31.8224 161.911 35.5308C161.911 36.8135 161.522 37.0584 160.232 37.0468C135.362 37.0468 110.496 37.0468 85.6341 37.0468L85.6467 36.9535Z" fill="#F3F4FB"/>
<path d="M85.9348 37.9448H160.345C162.274 37.9448 162.312 37.9448 161.698 39.6707C161.262 40.9821 160.452 42.1589 159.355 43.0759C158.651 43.6808 157.72 44.0034 156.762 43.9738C109.961 43.8572 63.1358 43.7562 16.2851 43.6706C14.8107 43.7644 13.3483 43.3699 12.1562 42.5568C10.9642 41.7438 10.1193 40.5645 9.77105 39.2276C9.43282 38.1314 9.62073 37.8982 10.8484 37.8982C22.1226 37.8982 33.4845 37.8982 44.7964 37.8982H85.9348V37.9448Z" fill="#C3C4CA"/>
<path d="M36.8793 6.14392H38.9463H42.3787C42.1156 7.31007 41.2888 7.49666 40.2992 7.89315C38.3036 8.60977 36.4367 9.60459 34.7623 10.8435C33.5889 11.8055 32.2397 12.5639 30.7787 13.0825C30.2341 13.243 29.7307 13.5059 29.2998 13.855C28.8688 14.204 28.5194 14.6317 28.2733 15.1116C27.9727 15.788 27.4465 15.6597 26.8828 15.683C25.6892 15.6794 24.5158 15.9698 23.4817 16.5249C22.4477 17.0799 21.5898 17.8798 20.9952 18.8433C20.8974 19.052 20.7302 19.2258 20.5181 19.3392C20.3061 19.4526 20.0605 19.4995 19.8176 19.473C17.0993 19.473 14.381 19.473 11.5499 19.1815L36.8793 6.14392Z" fill="#FDFDFD"/>
<path d="M155.434 16.2777L155.021 15.4148C155.91 15.2982 155.747 14.6218 155.848 14.0854C156.11 13.5866 156.211 13.0272 156.136 12.4761L155.835 11.3099C155.835 10.272 155.234 9.36244 155.171 8.33623C154.758 7.43829 153.918 7.06512 153.004 6.50537H160.671C161.422 6.50537 161.234 7.00682 161.247 7.39165C161.372 11.0883 161.472 14.785 161.623 18.4817C161.623 19.2864 161.46 19.6479 160.533 19.5429C158.516 19.368 156.461 19.8112 154.457 19.2747C154.921 18.3185 155.81 17.4905 155.434 16.2777Z" fill="#FEFEFE"/>
<path d="M104.8 18.8433C105.282 18.1527 105.949 17.5914 106.736 17.215C107.523 16.8386 108.401 16.6602 109.285 16.6975C113.875 16.3077 118.497 16.3977 123.065 16.9658C123.92 17.041 124.744 17.3071 125.466 17.7415C126.187 18.1759 126.786 18.7658 127.211 19.4613H104.575C104.299 19.1465 104.713 19.0415 104.8 18.8433Z" fill="#FCFCFC"/>
<path d="M48.8551 19.4263C49.8197 17.094 51.9367 16.8258 53.8659 16.7442C58.8847 16.4792 63.9193 16.6706 68.8982 17.3156C69.4763 17.3992 70.0127 17.6467 70.4341 18.0244C70.8556 18.4022 71.1416 18.8917 71.2533 19.4263H48.8551Z" fill="#FCFCFC"/>
<path d="M88.4527 19.4963H78.9197C78.5815 19.4963 78.0929 19.7412 77.8925 19.2514C77.692 18.7616 78.0177 18.5284 78.2182 18.2252C78.5325 17.8574 78.9329 17.5611 79.3887 17.3591C79.8446 17.157 80.344 17.0544 80.8488 17.059C85.9257 16.5537 91.047 16.5732 96.1192 17.1173C97.0884 17.1755 98.0055 17.5467 98.7123 18.1669C99.0505 18.4584 99.4263 18.8082 99.301 19.2397C99.1757 19.6712 98.5369 19.5313 98.1485 19.5313C94.9166 19.5079 91.6846 19.4963 88.4527 19.4963Z" fill="#FCFCFC"/>
<path d="M45.2097 19.4496H21.847C22.2332 18.6433 22.8573 17.9556 23.6467 17.4663C24.4361 16.9771 25.3585 16.7064 26.3066 16.6858C31.3173 16.5848 36.3699 16.5848 41.4642 16.6858C43.1678 16.7791 44.859 17.3272 45.2097 19.4496Z" fill="#FAFAFA"/>
<path d="M130.117 12.2078C130.024 11.8527 129.835 11.5257 129.567 11.2582C129.3 10.9907 128.963 10.7917 128.589 10.6802C128 10.447 127.036 10.4586 127.549 9.51403C127.963 8.79102 128.802 8.87265 129.428 9.31579C129.559 9.41455 129.685 9.51965 129.804 9.63065C130.894 10.0971 131.445 11.1117 132.309 11.823C132.395 11.9488 132.459 12.0866 132.497 12.2312C132.56 12.7465 132.56 13.2668 132.497 13.7821C132.581 14.1343 132.576 14.4998 132.483 14.8498C132.389 15.1999 132.21 15.525 131.959 15.7996C131.77 16.027 131.637 16.2895 131.568 16.5693C131.499 16.849 131.495 17.1394 131.558 17.4205C131.796 18.2602 131.771 19.2397 130.982 19.3563C129.917 19.5196 128.476 20.1143 127.737 18.4701C127.184 17.6036 126.351 16.922 125.357 16.5226C124.994 16.3244 124.18 16.5226 124.305 15.7763C124.321 15.5133 124.406 15.2579 124.552 15.0324C124.699 14.8068 124.902 14.6179 125.144 14.4818C125.411 14.3246 125.729 14.2595 126.043 14.2979C126.356 14.3362 126.646 14.4756 126.86 14.6917C127.173 15.0066 127.437 15.3448 127.725 15.6713C128.013 15.9978 128.376 16.0911 128.526 16.4876C128.617 15.998 128.587 15.4956 128.439 15.0183C128.025 14.4002 127.574 13.6539 126.823 13.5256C125.783 13.3623 125.871 12.7443 126.033 12.1845C126.196 11.6248 126.96 11.3565 127.649 11.4149C128.338 11.4732 128.902 12.0329 129.416 12.511C129.704 12.7138 129.936 12.9777 130.092 13.2807L130.28 13.5023C130.493 13.3157 130.28 13.1524 130.28 12.9658C130.167 12.7273 130.111 12.4685 130.117 12.2078Z" fill="#FDFDFD"/>
<path d="M80.0722 14.9016C80.0377 14.2191 79.8425 13.552 79.5005 12.9475C79.1585 12.343 78.678 11.8158 78.093 11.4032C77.7297 11.1699 76.9655 11.0416 77.3038 10.4119C77.4398 10.1496 77.6565 9.93081 77.9264 9.78339C78.1963 9.63597 78.5072 9.56655 78.8195 9.58395C79.3328 9.5959 79.8312 9.74672 80.2538 10.018C80.6765 10.2893 81.0052 10.6693 81.1996 11.1116C81.3876 11.4848 81.5254 12.0795 82.064 11.8463C82.6027 11.6131 82.302 11.0183 82.064 10.6801C81.7306 10.1904 81.3667 9.71926 80.9742 9.26909C80.6986 8.93091 79.7215 9.00088 80.2852 8.19623C80.4745 7.89717 80.7669 7.66646 81.1148 7.54156C81.4627 7.41666 81.8458 7.4049 82.2018 7.5082C83.204 7.7531 83.7301 8.54608 84.3564 9.21078C84.6571 9.52565 84.8199 10.307 85.4588 9.88715C86.0977 9.46734 85.4588 9.04752 85.1707 8.721C84.5588 7.69991 83.5574 6.92996 82.3647 6.56362C82.2269 6.50531 82.1767 6.44701 82.2269 6.3887C82.277 6.33039 82.3145 6.30707 82.3647 6.30707H89.8808C89.8403 6.8375 89.6284 7.34413 89.273 7.76039C88.9175 8.17664 88.435 8.48306 87.889 8.63937C86.6363 9.24577 85.7595 10.5868 84.4817 11.4615C82.9037 12.4901 81.4392 13.662 80.1098 14.9599L80.0722 14.9016Z" fill="#FDFDFD"/>
<path d="M80.0471 14.8783C79.9419 15.3216 79.7228 15.7346 79.4086 16.0818C79.0945 16.4291 78.6946 16.7004 78.2433 16.8724C77.7046 17.059 77.4791 17.6071 77.1409 18.0386C76.8027 18.47 77.1409 19.7761 75.7128 19.5196C74.2848 19.263 72.3807 20.1843 71.7669 18.1552C71.5288 17.3389 69.8878 17.2572 70.6269 16.0211C70.824 15.586 71.1431 15.2081 71.5508 14.927C71.9584 14.646 72.4398 14.4721 72.9444 14.4235C74.1971 14.3069 74.6105 15.0532 75.1742 15.7879C75.5249 16.2543 75.6126 17.3739 76.3517 16.954C77.0908 16.5342 76.3517 15.7879 76.0135 15.2048C75.4999 14.3768 75.1366 13.374 73.7837 13.374C74.3349 12.3011 75.0364 11.4498 76.2891 11.6014C76.8869 11.6904 77.4434 11.9414 77.8889 12.323C78.3345 12.7046 78.6495 13.1999 78.7945 13.7471C78.849 14.0477 79.0066 14.3237 79.2437 14.5339C79.4808 14.7441 79.7846 14.8772 80.1098 14.9133L80.0471 14.8783Z" fill="#FDFDFD"/>
<path d="M124.017 13.7705C123.653 15.753 122.639 16.1028 120.735 15.7996C116.949 15.3895 113.128 15.3583 109.335 15.7064C108.972 15.7064 108.496 15.9163 108.295 15.4848C108.095 15.0533 108.471 14.8084 108.684 14.5052C109.05 14.0963 109.513 13.7727 110.037 13.5601C110.562 13.3475 111.132 13.2519 111.703 13.2808C115.813 12.953 119.951 13.1176 124.017 13.7705Z" fill="#FDFDFD"/>
<path d="M155.021 15.4147C150.123 13.269 144.899 13.2807 139.663 13.4323L136.957 13.5023C136.506 12.8609 136.844 12.3944 137.345 11.9629C140.652 11.1233 143.997 11.5315 147.367 11.718C148.985 11.8542 150.592 12.088 152.177 12.4177C152.972 12.4995 153.705 12.8568 154.229 13.4187C154.754 13.9805 155.032 14.7056 155.008 15.4497L155.021 15.4147Z" fill="#FCFCFC"/>
<path d="M44.8841 13.8988C44.0823 14.4935 43.243 14.7618 42.8923 15.5547C42.8593 15.6837 42.7751 15.7963 42.6566 15.8699C42.5381 15.9435 42.394 15.9725 42.2534 15.9512C37.9692 15.3215 33.6474 15.9512 29.1753 15.6014C29.5773 14.9673 30.1431 14.4368 30.8212 14.0581C31.4994 13.6793 32.2685 13.4642 33.0586 13.4323C36.2076 13.2731 39.365 13.3355 42.5039 13.6189C43.243 13.6423 43.9696 13.7822 44.8841 13.8988Z" fill="#FCFCFC"/>
<path d="M136.281 14.7967C137.662 14.329 139.14 14.1614 140.602 14.3069C143.852 14.0881 147.119 14.3398 150.286 15.0532C150.611 15.2865 150.937 15.5314 150.862 15.9862C150.819 16.1303 150.732 16.2599 150.611 16.3593C147.705 16.009 144.77 15.8959 141.843 16.0212C139.029 16.035 136.236 16.4762 133.575 17.3272C133.287 17.4205 132.986 17.7937 132.685 17.4788C132.385 17.164 132.598 16.7908 132.798 16.4643C133.047 16.0454 133.41 15.694 133.849 15.4446C134.288 15.1952 134.789 15.0563 135.303 15.0416C135.471 15.1138 135.661 15.1289 135.84 15.0841C136.018 15.0393 136.174 14.9376 136.281 14.7967Z" fill="#FCFCFC"/>
<path d="M135.579 17.9337C137.153 17.2778 138.867 16.9666 140.59 17.0241C143.559 16.9541 146.553 16.6509 149.496 17.3389C149.687 17.4142 149.858 17.5279 149.996 17.672C150.134 17.816 150.236 17.9867 150.295 18.1718C150.353 18.3569 150.367 18.5518 150.335 18.7425C150.304 18.9332 150.227 19.115 150.11 19.2747C145.275 19.4263 140.427 19.368 135.592 19.2747C135.496 19.1877 135.419 19.0838 135.367 18.9692C135.314 18.8545 135.286 18.7313 135.285 18.6066C135.284 18.4819 135.309 18.3583 135.36 18.2428C135.41 18.1273 135.485 18.0222 135.579 17.9337Z" fill="#FBFBFB"/>
<path d="M70.464 14.2486C69.9629 16.2194 68.6727 16.3127 66.7059 16.1144C62.8586 15.725 58.9859 15.5964 55.1185 15.7296C55.2726 15.3471 55.5319 15.0089 55.8704 14.749C56.209 14.4891 56.615 14.3165 57.0477 14.2486C58.8858 13.717 60.8166 13.5191 62.7349 13.6655C65.3155 13.9104 67.9461 13.7238 70.464 14.2486Z" fill="#FCFCFC"/>
<path d="M80.6609 16.0095C81.0618 14.4236 82.4147 14.1787 83.6799 14.1554C88.2022 14.0737 92.7369 14.1554 97.2842 14.1554C97.0963 15.718 96.3447 16.2661 94.641 16.0795C89.9979 15.578 85.3096 15.5546 80.6609 16.0095Z" fill="#FDFDFD"/>
<path d="M100.065 11.9163C99.8898 12.9542 99.3261 13.2574 98.1485 13.2341C93.4635 13.1408 88.7909 13.2341 83.8428 13.2341C85.0955 11.4499 86.8367 11.3682 88.4527 11.3682C91.9727 11.3682 95.4803 11.5548 98.9878 11.6714C99.3261 11.788 99.7895 11.5198 100.065 11.9163Z" fill="#FBFBFB"/>
<path d="M73.7085 11.3915C73.1448 13.1174 72.1928 13.3857 70.5267 13.2341C66.7046 12.7044 62.8323 12.5597 58.9769 12.8026C59.1648 11.9863 59.8788 11.7647 60.5177 11.6364C64.877 10.5053 69.2364 11.065 73.7085 11.3915Z" fill="#FAFAFA"/>
<path d="M34.5994 12.2196C34.9808 11.6882 35.5057 11.2597 36.1215 10.9772C36.7372 10.6947 37.422 10.5681 38.107 10.6103L49.043 11.24C48.7733 11.9398 48.219 12.5129 47.4996 12.8358C46.7802 13.1586 45.9533 13.2054 45.1972 12.9659C41.6834 12.5239 38.1447 12.2747 34.5994 12.2196Z" fill="#FBFBFB"/>
<path d="M8.76886 21.1405C6.26347 19.2863 3.9961 17.642 1.80388 15.9395C1.57146 15.7623 1.38246 15.5409 1.2496 15.2901C1.11673 15.0393 1.04308 14.765 1.03358 14.4855C1.02409 14.206 1.07898 13.9278 1.19456 13.6697C1.31014 13.4116 1.48373 13.1796 1.70367 12.9891C1.99179 12.6393 2.40518 12.1611 2.95636 12.3944C3.50755 12.6276 3.43239 13.0474 3.40733 13.5605C3.37609 14.0824 3.40127 14.6059 3.48249 15.1232C3.60776 15.8112 4.184 16.4642 4.82287 16.2893C7.17794 15.7529 7.7166 17.8869 9.16972 18.6216C9.24901 18.6474 9.31898 18.6933 9.37175 18.7541C9.42453 18.8149 9.45801 18.8883 9.46843 18.9658C9.47885 19.0434 9.46579 19.1222 9.43072 19.1932C9.39565 19.2643 9.33996 19.3248 9.26994 19.3679C8.76886 19.7878 8.76886 20.3359 8.76886 21.1405Z" fill="#FBFBFB"/>
<path d="M125.37 11.2516C125.119 12.6277 124.443 12.8259 122.864 12.651C118.774 11.9884 114.596 11.9372 110.488 12.4994C110.688 11.1817 110.751 11.0884 111.991 10.9251C114.765 10.5795 117.571 10.5209 120.359 10.7502C121.612 10.8435 122.964 10.9018 124.267 10.9834C124.593 11.2167 125.069 10.9251 125.37 11.2516Z" fill="#FAFAFA"/>
<path d="M99.3887 10.9367C95.5121 10.4462 91.5997 10.2434 87.6885 10.3303C87.9641 9.26912 88.7283 9.16416 89.5926 9.01256C93.7891 8.3362 97.9356 9.12918 102.12 9.37407C101.907 10.0621 101.957 10.7968 101.042 11.0067C100.529 11.1116 99.9399 11.3915 99.3887 10.9367Z" fill="#FBFBFB"/>
<path d="M125.332 10.3186C121.305 9.73608 117.221 9.57181 113.156 9.82883C112.83 9.82883 112.442 9.93378 112.379 9.46732C112.317 9.00086 112.655 8.89591 112.968 8.77929C114.373 8.37529 115.832 8.15549 117.302 8.12625C119.962 8.06116 122.623 8.15855 125.269 8.41779C125.695 8.66268 126.234 8.34782 126.647 8.686C126.309 9.2924 126.647 10.0854 125.996 10.6218C125.869 10.6164 125.744 10.5867 125.63 10.5345C125.516 10.4824 125.414 10.4089 125.332 10.3186Z" fill="#FBFBFB"/>
<path d="M137.972 9.66567C139.399 9.20568 140.91 9.01153 142.419 9.09426C145.404 9.08363 148.38 9.39671 151.288 10.0272C151.726 10.2138 152.115 10.6103 152.678 10.3304C153.232 10.3588 153.76 10.5574 154.179 10.8951C154.598 11.2327 154.886 11.6903 154.996 12.1962C154.996 12.3595 154.908 12.4061 154.758 12.3128C150.035 10.4587 145.049 10.5286 140.076 10.5986H138.034C137.032 10.3654 137.483 10.0155 137.972 9.66567Z" fill="#FAFAFA"/>
<path d="M139.65 7.05342C142.426 6.66905 145.245 6.63374 148.031 6.94847C149.657 6.98781 151.264 7.2917 152.778 7.84641C153.465 8.05099 154.059 8.46095 154.47 9.01256C154.683 9.31576 155.159 9.56065 154.67 9.98046C150.398 8.38284 145.901 8.2429 141.379 8.2429C140.703 8.2429 140.026 8.31287 139.35 8.34785C138.823 7.77644 139.312 7.42659 139.65 7.05342Z" fill="#F9F9F9"/>
<path d="M104.061 6.43541C102.909 8.63943 102.896 8.54614 100.303 8.26626C97.4378 7.91786 94.5491 7.76197 91.6596 7.7998C91.2964 7.7998 90.645 8.16131 90.5948 7.47328C90.5948 6.99516 91.0834 6.84356 91.5344 6.71528C93.153 6.40091 94.8157 6.33395 96.4574 6.51704C98.9628 6.55202 101.468 5.99227 104.061 6.43541Z" fill="#FAFAFA"/>
<path d="M62.522 10.2254C62.7976 9.05928 63.7747 8.88436 64.7142 8.74442C67.7111 8.47422 70.7304 8.50159 73.721 8.82605C74.7232 8.88436 75.7128 9.04762 76.7651 9.16423C76.7325 9.41483 76.6416 9.65579 76.4987 9.87036C76.3559 10.0849 76.1645 10.268 75.938 10.4067C75.7115 10.5454 75.4552 10.6366 75.187 10.6737C74.9188 10.7109 74.6451 10.6932 74.385 10.6219C70.4671 9.99976 66.4777 9.86642 62.522 10.2254Z" fill="#FAFAFA"/>
<path d="M79.6338 6.93688C79.4083 8.44121 78.4938 8.61613 77.1284 8.35958C73.4652 7.76631 69.7449 7.53569 66.0295 7.67155C66.1924 6.79694 66.9315 6.63368 67.6831 6.5054C70.414 5.899 73.1073 6.58703 75.8256 6.62202C77.0532 6.58703 78.2934 6.79694 79.6338 6.93688Z" fill="#F7F7F7"/>
<path d="M43.1678 7.50832C47.3644 5.25765 51.7864 6.54041 56.1833 6.71534C55.557 7.32173 55.2313 8.1497 54.1414 8.09139C50.4836 7.86982 46.8257 7.70656 43.1678 7.50832Z" fill="#F9F9F9"/>
<path d="M21.0703 8.72104C20.7697 8.35953 20.4691 7.99802 20.1559 7.64818C18.6902 6.03889 18.6902 5.51412 20.1559 3.95148C21.0202 3.62496 21.2207 3.95148 21.1706 4.7328C21.0328 6.97181 21.0578 6.99513 23.3878 7.43827C23.6344 7.48875 23.862 7.5997 24.0471 7.75964C24.2321 7.91958 24.3678 8.12267 24.4401 8.34787C24.8285 9.16557 25.4809 9.85033 26.3066 10.307C25.58 10.8668 24.9286 11.5898 23.8012 11.2632C23.0893 10.6954 22.4274 10.0754 21.822 9.40907L21.0703 8.72104Z" fill="#FAFAFA"/>
<path d="M43.7567 16.1145C45.7359 13.9221 47.8028 13.7822 49.3687 15.788C49.5236 15.9429 49.6505 16.1201 49.7445 16.3127C49.9199 16.7909 47.2391 19.5197 46.7381 19.4847C46.237 19.4497 46.2495 19.3331 46.1117 18.9599C45.9856 18.3472 45.7068 17.7706 45.2978 17.2764C44.8888 16.7822 44.3609 16.3843 43.7567 16.1145Z" fill="#FCFCFC"/>
<path d="M50.947 16.2078C50.947 16.2078 48.592 13.7705 48.7047 13.4323C48.9312 12.9158 49.3103 12.4696 49.7981 12.1456C50.2858 11.8215 50.8623 11.6329 51.4607 11.6015C52.3626 11.4499 54.3043 13.4556 54.2416 14.4702C54.1414 16.2427 52.5129 15.9162 50.947 16.2078Z" fill="#FCFCFC"/>
<path d="M52.8512 8.72104C52.0118 10.1204 51.3354 10.5869 50.0075 10.3653C48.2125 10.1474 46.4058 10.0228 44.5959 9.99214C42.8312 9.92301 41.0735 9.7438 39.3346 9.45571C43.6689 7.69482 48.141 9.16417 52.8512 8.72104Z" fill="#FAFAFA"/>
<path d="M103.435 19.4613C102.871 19.4613 102.295 19.4613 101.731 19.4613C100.929 19.5312 100.366 19.4613 100.215 18.505C100.121 18.1415 99.9339 17.8045 99.6701 17.5224C99.4063 17.2402 99.0735 17.0213 98.6997 16.8841C97.8479 16.4876 97.447 16.0328 98.0358 15.1815C98.6246 14.3302 99.2885 13.7705 100.416 14.3419C101.187 14.6285 101.839 15.1377 102.276 15.7946C102.714 16.4515 102.913 17.2216 102.846 17.9919C102.846 18.4467 102.545 19.1581 103.485 19.1581C103.56 19.228 103.585 19.2864 103.485 19.333C103.489 19.3566 103.487 19.3808 103.478 19.4032C103.469 19.4257 103.454 19.4457 103.435 19.4613Z" fill="#FCFCFC"/>
<path d="M52.6132 10.7502C52.921 10.2393 53.3946 9.83212 53.9661 9.58704C54.5377 9.34196 55.1778 9.27151 55.795 9.38577C57.0477 9.64232 57.3483 10.6919 57.6615 11.6364C57.8369 12.1962 58.1751 12.9892 57.1354 13.1291C56.3211 13.2457 55.3315 14.5635 54.63 12.9075C54.129 12.0638 53.4416 11.3286 52.6132 10.7502Z" fill="#FCFCFC"/>
<path d="M103.861 18.0853C103.954 17.2624 103.786 16.4321 103.379 15.6966C102.972 14.9611 102.342 14.3524 101.568 13.9455C100.955 13.5373 100.428 13.1758 100.98 12.4295C101.075 12.2804 101.201 12.1507 101.351 12.048C101.501 11.9452 101.671 11.8715 101.852 11.8313C102.033 11.791 102.221 11.7851 102.405 11.8137C102.589 11.8423 102.764 11.905 102.921 11.998C105.69 13.1408 106.191 16.0445 103.861 18.0853Z" fill="#FCFCFC"/>
<path d="M107.556 6.35376H113.206C112.204 8.068 111.49 9.72394 109.748 11.0184C109.285 9.2808 109.085 7.58988 107.556 6.35376Z" fill="#F5F5F5"/>
<path d="M132.585 8.28957C132.472 7.57822 131.783 7.21671 131.332 6.54034H136.907C135.341 7.79979 134.99 9.74726 133.449 10.9367L133.249 11.0417C133.11 10.9843 132.996 10.886 132.923 10.7618C132.748 10.377 132.685 9.95717 132.535 9.59566C132.385 9.23415 132.786 8.70939 132.585 8.28957Z" fill="#FBFBFB"/>
<path d="M106.667 16.3127C106.67 15.2432 106.358 14.1934 105.764 13.2782C105.169 12.3629 104.316 11.6174 103.297 11.1233C102.746 10.8551 102.796 10.5169 103.122 10.1205C103.447 9.72397 103.811 9.22252 104.612 9.57237C105.827 10.2281 106.721 11.2979 107.104 12.5556C107.488 13.8134 107.331 15.1607 106.667 16.3127Z" fill="#F9F9F9"/>
<path d="M56.2084 8.21961C58.4006 6.75026 60.7181 7.51992 61.3695 9.8872C61.4947 10.342 61.2066 10.4819 60.8809 10.5402C60.2714 10.6415 59.686 10.8429 59.1522 11.135C58.8265 11.3099 58.5133 11.3449 58.4131 10.8784C58.0418 9.77603 57.2599 8.83321 56.2084 8.21961Z" fill="#FBFBFB"/>
<path d="M114.759 6.84358C115.771 6.4765 116.861 6.33666 117.941 6.43542H127.775L127.073 8.41788C126.86 7.25173 125.733 7.63656 125.044 7.55493C122.137 7.20214 119.203 7.08508 116.275 7.20508C115.711 7.25173 115.072 7.64822 114.759 6.84358Z" fill="#FCFCFC"/>
<path d="M61.9332 9.03585C61.6944 8.44337 61.3326 7.90051 60.8683 7.43829C60.404 6.97607 59.8464 6.60356 59.2274 6.34204H65.3781C65.1151 6.90179 65.065 7.68312 64.1254 7.89302C63.2811 8.04305 62.5118 8.44407 61.9332 9.03585Z" fill="#F7F7F7"/>
<path d="M107.97 11.5664C107.333 10.3894 106.334 9.41522 105.101 8.76768C104.512 8.48781 104.362 8.11464 104.575 7.60153C104.673 7.38082 104.855 7.20157 105.086 7.09825C105.317 6.99492 105.581 6.97481 105.828 7.04178C106.532 7.15023 107.172 7.48954 107.631 7.99848C108.091 8.50742 108.34 9.15247 108.333 9.81722C108.308 10.4469 108.909 11.135 107.97 11.5664Z" fill="#F7F7F7"/>
<path d="M135.504 19.1698H148.97C149.421 19.1698 149.885 19.2514 150.223 18.9249C150.308 18.8228 150.419 18.7424 150.546 18.6914C150.673 18.6404 150.812 18.6204 150.95 18.6333C151.726 18.7849 152.591 18.6333 153.255 19.1814C152.879 19.8228 152.252 19.4613 151.764 19.4613C145.876 19.4613 139.993 19.4613 134.113 19.4613C133.587 19.4613 132.748 19.7645 132.585 19.2514C132.372 18.5517 133.324 18.5051 133.838 18.2252C134.036 18.1296 134.241 18.0477 134.452 17.9803C135.04 18.2135 135.053 18.9132 135.504 19.1698Z" fill="#F3F3F3"/>
<path d="M130.493 9.00091C130.243 8.54611 129.729 8.41783 129.316 8.17294C128.902 7.92805 128.213 8.26623 128.476 7.53156C128.652 7.00679 129.215 6.92516 129.729 7.00679C130.781 7.18171 131.282 7.98636 131.833 8.70937C132.147 8.95728 132.367 9.29255 132.46 9.66562C132.498 9.89362 132.498 10.1256 132.46 10.3536C132.442 10.5864 132.335 10.8056 132.159 10.9717C130.957 10.8434 130.957 9.74725 130.493 9.00091Z" fill="#F6F6F6"/>
<path d="M10.2345 13.1757C7.72915 13.1757 7.87947 11.1233 7.11533 9.75887C6.965 9.49065 7.02764 9.39736 7.27818 9.31573C7.52872 9.2341 7.62893 9.10582 7.87947 9.31573C8.35863 9.65423 8.71316 10.1228 8.89415 10.6568C9.13458 11.5937 9.72514 12.4204 10.5602 12.9891C10.5602 13.1407 10.5352 13.3273 10.2345 13.1757Z" fill="#F8F8F8"/>
<path d="M150.611 16.3594V15.9745C151.112 15.8463 151.325 15.1699 151.989 15.3565C152.6 15.3891 153.186 15.5892 153.674 15.9316C154.162 16.2741 154.531 16.7435 154.733 17.2806C154.896 17.6771 155.184 18.1086 154.382 18.1669C153.518 16.8958 151.864 16.9774 150.611 16.3594Z" fill="#F2F2F2"/>
<path d="M8.83154 14.132C8.26783 14.132 7.70411 14.132 7.1404 14.132C6.57669 14.132 6.06309 13.8405 6.15077 13.1408C6.23518 12.7742 6.21608 12.3935 6.09533 12.0358C5.97458 11.6782 5.7563 11.3557 5.46179 11.1C5.01082 10.7502 5.36158 10.4003 5.63717 10.2021C6.11319 9.86389 6.3011 10.2954 6.47647 10.6102C6.54457 10.7545 6.58688 10.9081 6.60174 11.065C6.65262 11.8143 6.97735 12.5248 7.52199 13.0785C8.06664 13.6322 8.79839 13.9957 9.59568 14.1087C9.49476 14.2012 9.3601 14.255 9.2185 14.2594C9.07691 14.2637 8.93875 14.2182 8.83154 14.132Z" fill="#EEEEEE"/>
<path d="M8.83154 14.132H9.59569C10.8362 15.165 12.1977 16.0647 13.6544 16.8141C11.124 17.3272 10.0216 15.7529 8.83154 14.132Z" fill="#F2F2F2"/>
<path d="M7.17799 15.1116C7.72918 15.1116 8.23025 14.925 8.64364 15.5314C9.32738 16.5587 10.3652 17.3398 11.5875 17.7471C10.7482 18.61 10.1469 18.0503 9.54558 17.7471C8.49332 17.164 8.10499 16.0211 7.17799 15.3215C7.06107 15.2748 7.02349 15.2282 7.06525 15.1815C7.06525 15.1815 7.14041 15.1116 7.17799 15.1116Z" fill="#F2F2F2"/>
<path d="M10.2346 13.1757L10.5603 12.9424C12.3892 13.6305 13.5667 15.2747 15.4583 15.8695C13.1283 15.9628 11.7127 14.5167 10.2346 13.1757Z" fill="#E3E3E3"/>
<path d="M6.13822 15.3332C4.81036 15.6247 4.15896 15.1699 4.34687 13.8755C4.40845 13.4109 4.35087 12.9393 4.17885 12.4995C4.00682 12.0596 3.72526 11.6639 3.35724 11.3449C4.7352 11.2167 5.17364 11.893 5.12354 12.8843C5.07579 13.2219 5.11319 13.5653 5.23279 13.8871C5.35238 14.2089 5.55087 14.5004 5.81252 14.7384C5.97537 14.9134 6.32612 14.995 6.13822 15.3332Z" fill="#F4F4F4"/>
<path d="M137.972 9.66565C137.871 9.99217 137.471 10.342 137.972 10.6452L134.364 11.6598C135.203 9.96885 136.606 9.84057 137.972 9.66565Z" fill="#E0E0E0"/>
<path d="M153.292 19.2047C152.503 19.0648 151.614 19.5196 150.925 18.8199C150.84 18.7447 150.772 18.6543 150.726 18.5541C150.68 18.4538 150.656 18.3459 150.656 18.2368C150.656 18.1278 150.68 18.0198 150.726 17.9196C150.772 17.8194 150.84 17.7289 150.925 17.6537C151.927 17.922 153.417 17.5021 153.292 19.2047Z" fill="#F8F8F8"/>
<path d="M12.8276 11.1934C11.3995 10.4937 11.2742 8.9077 10.0215 7.83484C12.7023 7.96312 12.1511 9.98056 12.8276 11.1934Z" fill="#F0F0F0"/>
<path d="M135.905 13.7705L133.675 14.3769C134.163 12.8026 134.376 12.6393 136.255 12.2311C136.381 12.4891 136.414 12.7774 136.351 13.0543C136.288 13.3312 136.132 13.5821 135.905 13.7705Z" fill="#EAEAEA"/>
<path d="M130.493 9.00092L132.097 10.8201C132.181 10.888 132.249 10.9721 132.296 11.0667C132.343 11.1613 132.367 11.2641 132.367 11.3682C132.367 11.4723 132.343 11.5751 132.296 11.6697C132.249 11.7643 132.181 11.8484 132.097 11.9163C130.844 11.5781 130.531 10.4003 129.741 9.65396C130.343 9.72393 130.531 9.46738 130.493 9.00092Z" fill="#747474"/>
<path d="M25.1917 6.50536L25.6301 7.0068C25.8932 7.57822 26.7325 7.82311 26.6824 8.59277C26.7723 8.6901 26.8218 8.81423 26.8218 8.94261C26.8218 9.071 26.7723 9.19513 26.6824 9.29246C25.639 8.76294 24.8641 7.86957 24.5278 6.80856C24.5024 6.74206 24.496 6.67058 24.5092 6.60108C24.5223 6.53159 24.5546 6.46647 24.6029 6.41207C24.7908 6.33044 25.0539 6.29545 25.1917 6.50536Z" fill="#E9E9E9"/>
<path d="M25.9558 6.17889V5.85237C26.056 5.7241 26.1688 5.7241 26.2815 5.85237L26.9329 6.19056C27.3714 7.00686 28.361 7.20511 28.9748 7.82317C28.9748 8.44123 28.4988 8.16135 28.1731 8.13803C27.0707 7.86981 26.6448 6.89025 25.9558 6.17889Z" fill="#F1F1F1"/>
<path d="M154.67 9.95714L154.47 8.98923C154.561 8.9915 154.652 8.97538 154.737 8.94195C154.821 8.90853 154.897 8.85859 154.959 8.79553C155.02 8.73247 155.067 8.65777 155.095 8.5765C155.123 8.49522 155.132 8.40929 155.121 8.32452C155.722 9.24578 156.499 10.1321 155.785 11.2982L154.67 9.95714Z" fill="#4F4F4F"/>
<path d="M154.407 18.1669C154.883 18.0036 154.595 17.5605 154.758 17.2806C155.509 17.2806 155.284 16.6509 155.434 16.2777C155.96 17.5372 155.848 18.61 154.407 19.2631V18.1669Z" fill="#252525"/>
<path d="M107.97 11.5665C108.483 11.065 108.145 10.4003 108.308 9.86389C108.909 10.5053 108.233 11.5431 109.26 12.1962C109.711 12.4644 109.097 13.0941 108.408 13.304L107.97 11.5665Z" fill="#EEEEEE"/>
<path d="M128.464 15.0416C128.464 15.0416 128.589 15.0416 128.614 15.1349C128.99 15.8813 129.641 17.1057 128.89 17.3739C128.138 17.6421 128.163 16.2777 127.75 15.6947C128.389 15.8579 128.489 15.5081 128.464 15.0416Z" fill="#929292"/>
<path d="M10.197 9.67728L11.6125 11.9163C10.3598 11.8463 10.0091 11.0184 9.84623 10.0738C9.69591 9.74725 9.87128 9.65396 10.197 9.67728Z" fill="#EFEFEF"/>
<path d="M135.905 13.7704L136.255 12.2311C136.408 12.1199 136.583 12.0388 136.771 11.9926C136.958 11.9465 137.154 11.9364 137.345 11.9629L136.957 13.5022C136.827 13.6356 136.659 13.7316 136.473 13.7792C136.286 13.8267 136.089 13.8236 135.905 13.7704Z" fill="#8F8F8F"/>
<path d="M14.619 13.9571C14.0562 13.8466 13.5228 13.633 13.0496 13.3287C12.5765 13.0244 12.1731 12.6355 11.863 12.1846C13.3537 12.2429 13.8924 13.2341 14.619 13.9571Z" fill="#E6E6E6"/>
<path d="M150.962 17.6421V18.8083L150.323 18.9132C149.747 18.5051 150.11 17.7471 149.622 17.304C150.035 17.4089 150.561 17.269 150.962 17.6421Z" fill="#848484"/>
<path d="M139.65 7.05353L139.35 8.32463H138.322C137.934 8.10306 137.596 7.84651 137.972 7.38005C138.347 6.91359 139.124 7.25177 139.65 7.05353Z" fill="#DDDDDD"/>
<path d="M137.972 7.43829L138.322 8.38288L136.255 8.98928C136.631 8.07968 137.02 7.4966 137.972 7.43829Z" fill="#E4E4E4"/>
<path d="M154.758 12.3128L154.996 12.1962C155.359 12.3128 155.484 13.0941 156.086 12.5227C156.825 13.1874 156.499 13.6888 155.797 14.132C155.898 13.304 154.77 13.0824 154.758 12.3128Z" fill="#B7B7B7"/>
<path d="M14.4436 12.0212C14.9223 12.078 15.3732 12.2623 15.7421 12.5519C16.111 12.8416 16.3822 13.2242 16.5231 13.6539C15.6493 13.3477 14.9152 12.7713 14.4436 12.0212Z" fill="#DBDBDB"/>
<path d="M99.3887 10.9367L101.105 11.0067L100.065 11.893C99.7144 11.7647 99.276 11.893 98.9879 11.6131C99.1087 11.5392 99.2084 11.4389 99.2782 11.3211C99.3481 11.2032 99.386 11.0713 99.3887 10.9367Z" fill="#353535"/>
<path d="M152.014 15.4148C151.501 15.5081 151.526 16.5809 150.636 16.0328L150.286 15.1116C150.849 15.2049 151.576 14.8317 152.014 15.4148Z" fill="#959595"/>
<path d="M135.504 19.1697C134.251 19.4379 134.627 18.54 134.464 18.0036L135.579 17.9336L135.504 19.1697Z" fill="#4D4D4D"/>
<path d="M21.847 9.40918C22.6316 9.89194 23.2976 10.5239 23.8012 11.2634C23.3382 11.1252 22.9183 10.8842 22.5779 10.5612C22.2374 10.2381 21.9865 9.84272 21.847 9.40918Z" fill="#121212"/>
<path d="M130.117 12.2079C130.443 12.3012 130.443 12.5694 130.493 12.8143C130.681 13.3974 130.643 13.7705 129.829 13.4557L129.441 12.5344L130.117 12.2079Z" fill="#A7A7A7"/>
<path d="M132.522 13.8054C132.357 13.5704 132.246 13.3064 132.194 13.0297C132.142 12.7529 132.152 12.4693 132.222 12.1962C132.388 12.1301 132.567 12.096 132.748 12.096C132.929 12.096 133.108 12.1301 133.274 12.1962C133.306 12.2557 133.316 12.3234 133.302 12.3887C133.289 12.4541 133.252 12.5134 133.199 12.5577C132.786 12.8725 133.111 13.5605 132.522 13.8054Z" fill="#939393"/>
<path d="M26.6448 9.29247V8.59277C27.0958 8.9193 27.9727 8.7677 27.8975 9.61899C27.6766 9.67655 27.443 9.67655 27.2221 9.61897C27.0012 9.56139 26.8015 9.44845 26.6448 9.29247Z" fill="#FEFEFE"/>
<path d="M132.197 9.66567C132.065 9.54097 131.965 9.39028 131.904 9.22475C131.844 9.05922 131.824 8.8831 131.846 8.70943C132.001 8.72069 132.156 8.68618 132.288 8.61081C132.421 8.53544 132.525 8.42305 132.585 8.28961C133.036 8.66278 132.873 9.18755 132.948 9.64235C132.901 9.69044 132.844 9.72926 132.78 9.75653C132.717 9.7838 132.648 9.79896 132.578 9.80113C132.508 9.8033 132.438 9.79244 132.373 9.76918C132.307 9.74592 132.247 9.71073 132.197 9.66567Z" fill="#222222"/>
<path d="M30.4155 7.13512C31.0669 7.13512 31.7558 6.92521 32.3196 7.40333C31.5429 8.17299 30.9917 7.57825 30.4155 7.13512Z" fill="#8E8E8E"/>
<path d="M136.281 14.7967C136.281 15.1466 136.281 15.578 135.792 15.648C135.303 15.718 135.291 15.3565 135.241 15.0416C135.504 14.6568 135.905 14.7617 136.281 14.7967Z" fill="#CCCCCC"/>
<path d="M28.6742 6.15552C29.288 6.27213 29.9269 6.30712 30.0146 7.11176C29.2254 7.2517 28.6241 7.07678 28.6742 6.15552Z" fill="#D6D6D6"/>
<path d="M27.4089 5.81732C28.2482 4.65117 28.4236 5.59575 28.6616 6.19049C28.2858 6.08554 27.7597 6.19049 27.4089 5.81732Z" fill="#F7F7F7"/>
<path d="M125.332 10.3186C125.708 10.1787 125.908 10.3186 126.021 10.6568C125.883 10.9367 125.745 11.2049 125.37 11.2515L124.267 10.995C124.668 10.8317 125.169 10.8084 125.332 10.3186Z" fill="#666666"/>
<path d="M114.759 6.84348C115.173 7.28661 115.774 6.97175 116.237 7.17C115.489 7.44112 114.676 7.52162 113.882 7.40323C113.939 7.23118 114.056 7.08207 114.215 6.98036C114.375 6.87865 114.567 6.83038 114.759 6.84348Z" fill="#E1E1E1"/>
<path d="M152.678 10.3303C151.889 11.4965 151.664 10.4586 151.288 10.0271C151.775 9.97522 152.266 10.0824 152.678 10.3303Z" fill="#AEAEAE"/>
<path d="M28.2107 8.13798L29.0124 7.82312L30.1398 8.27792L30.0647 8.6161L28.2107 8.13798Z" fill="#DBDBDB"/>
<path d="M103.435 19.4613C103.413 19.4237 103.401 19.3816 103.401 19.3389C103.401 19.2961 103.413 19.254 103.435 19.2164C103.748 18.7033 104.312 18.9832 104.688 18.8433L104.462 19.4613H103.435Z" fill="#818181"/>
<path d="M10.197 9.67733L9.84623 10.0738C9.55811 9.73563 9.00693 9.25751 9.44537 8.97764C9.88381 8.69776 10.0216 9.33914 10.197 9.67733Z" fill="#CFCFCF"/>
<path d="M82.3521 6.20221C82.3216 6.23895 82.3051 6.28406 82.3051 6.33049C82.3051 6.37691 82.3216 6.42202 82.3521 6.45876H80.5732V6.20221H82.3521Z" fill="#454545"/>
<path d="M6.13826 15.3331L5.81256 14.7383L7.178 15.1115V15.3331H6.13826Z" fill="#D5D5D5"/>
<path d="M133.199 12.5577V12.1962C133.108 12.1082 133.038 12.003 132.994 11.8877C132.951 11.7725 132.934 11.6498 132.946 11.5281C132.958 11.4064 132.998 11.2885 133.063 11.1824C133.129 11.0764 133.217 10.9846 133.324 10.9134H133.55C133.412 11.4731 133.913 12.1145 133.199 12.5577Z" fill="#EBEBEB"/>
<path d="M126.672 8.72105C126.196 8.72105 125.683 8.83766 125.294 8.45283L127.086 8.41785C127.07 8.50747 127.019 8.5884 126.943 8.64458C126.866 8.70075 126.77 8.72805 126.672 8.72105Z" fill="#717171"/>
<path d="M22.5485 6.55206C21.7343 6.2955 21.4211 5.88735 21.9222 5.10603C22.4233 4.32471 21.7343 3.76496 21.5589 3.00696C22.5861 3.07693 22.9744 3.62502 22.8116 4.42966C22.7202 4.7577 22.7495 5.10481 22.8948 5.41554C23.0401 5.72627 23.2931 5.98271 23.6133 6.1439C23.6453 6.17017 23.6709 6.20247 23.6885 6.23866C23.706 6.27485 23.7151 6.3141 23.7151 6.35381C23.7151 6.39352 23.706 6.43277 23.6885 6.46896C23.6709 6.50515 23.6453 6.53745 23.6133 6.56372C23.2703 6.68899 22.8883 6.68481 22.5485 6.55206Z" fill="#D6D6D6"/>
<path d="M24.6155 1.74744C26.031 2.35384 25.9559 3.72989 26.8077 4.72112C24.2647 4.6978 24.9788 2.89026 24.6155 1.74744Z" fill="#E2E2E2"/>
<path d="M26.3066 5.8523H25.9809C25.7304 5.73568 25.4673 5.52578 25.2293 5.53744C23.9014 5.64239 23.2876 5.14095 23.5883 3.89317C23.7135 3.35674 22.4483 2.72701 23.5883 2.42381C24.0017 2.3072 24.2773 3.33341 24.2522 3.95147C24.2021 5.29255 25.8556 5.00101 26.3066 5.8523Z" fill="#EBEBEB"/>
<path d="M27.3213 1.05939L28.2858 1.82905C28.2858 2.20222 28.5364 2.61037 28.1355 2.9952C27.409 2.8436 27.6845 1.89902 26.983 1.74742C26.8703 1.42089 26.9455 1.16434 27.3213 1.05939Z" fill="#DBDBDB"/>
<path d="M26.6323 2.30725C26.9204 2.84368 27.6595 3.14688 27.5467 3.89322C26.6197 3.65999 26.3066 3.15854 26.6323 2.30725Z" fill="#D7D7D7"/>
<path d="M28.4111 4.28967L29.7265 4.58121C29.8061 4.65321 29.8677 4.74076 29.9066 4.83754C29.9456 4.93433 29.9611 5.03795 29.9519 5.14096C29.9147 5.27876 29.8365 5.40402 29.7265 5.50247C28.6617 5.68905 28.6867 4.84943 28.4111 4.28967Z" fill="#B7B7B7"/>
<path d="M22.5485 6.55199L23.5632 6.44704C23.7165 6.3556 23.8947 6.30701 24.0768 6.30701C24.2589 6.30701 24.4371 6.3556 24.5904 6.44704L24.4902 6.7619C23.8012 6.72691 23.1373 7.01845 22.5485 6.55199Z" fill="#0E0E0E"/>
<path d="M24.5904 6.49375H23.5632C23.5567 6.39278 23.5567 6.29153 23.5632 6.19055C24.0893 6.37714 24.7282 6.19055 25.1791 6.55206L24.5904 6.49375Z" fill="#CECECE"/>
<path d="M31.0418 4.91943C30.9424 4.90258 30.8406 4.90258 30.7412 4.91943C30.6876 4.95146 30.6237 4.96523 30.5605 4.95841C30.4972 4.95158 30.4385 4.92457 30.3942 4.88197C30.3499 4.83938 30.3228 4.78382 30.3176 4.72474C30.3123 4.66567 30.3292 4.60672 30.3654 4.55792H30.4906C30.5148 4.50888 30.5536 4.46737 30.6025 4.43841C30.6514 4.40944 30.7083 4.39425 30.7662 4.39466C30.8267 4.39903 30.8856 4.4147 30.9394 4.44075C30.9932 4.4668 31.0408 4.50269 31.0794 4.54626C31.1546 4.62789 31.1671 4.69786 31.0794 4.75617C30.9917 4.81448 31.0794 4.91943 31.0418 4.91943Z" fill="#DDDDDD"/>
<path d="M30.453 4.84946C30.5568 4.84078 30.6601 4.87005 30.7411 4.93109L30.4029 5.22263L30.2902 5.09435V4.91943L30.453 4.84946Z" fill="#161616"/>
<path d="M31.0418 4.91941C31.0692 4.87296 31.0836 4.82081 31.0836 4.76781C31.0836 4.71481 31.0692 4.66266 31.0418 4.61621L31.3675 4.93107L31.0418 4.91941Z" fill="#232323"/>
<path d="M30.4029 5.22257L30.0647 5.52576L29.952 5.3042L30.0647 5.12927L30.3278 5.19924L30.4029 5.22257Z" fill="#161616"/>
<path d="M30.0646 5.19923V5.52576H29.9018H29.7515V5.1176C29.8067 5.10321 29.8651 5.10321 29.9203 5.11761C29.9756 5.132 30.0255 5.16024 30.0646 5.19923Z" fill="#F0F0F0"/>
<path d="M30.0646 5.19924C29.9525 5.18908 29.8448 5.153 29.7515 5.09428V4.58118H30.0646C30.115 4.62568 30.1536 4.68041 30.1775 4.74109C30.2014 4.80177 30.2099 4.86677 30.2024 4.93102L30.0646 5.08262V5.19924Z" fill="black"/>
<path d="M30.0647 4.91936V4.58118H30.3653C30.4206 4.66562 30.4509 4.76219 30.453 4.86105L30.3278 4.97767H30.19L30.0647 4.91936Z" fill="#161616"/>
<path d="M31.0794 4.59293H30.7412C30.7107 4.57131 30.6867 4.54284 30.6714 4.5102C30.656 4.47756 30.6499 4.44182 30.6535 4.40635C30.6535 4.33638 30.6535 4.30139 30.6535 4.30139H31.0418C31.0597 4.3979 31.0723 4.49521 31.0794 4.59293Z" fill="#363636"/>
<path d="M30.691 4.28967C30.716 4.38546 30.716 4.48542 30.691 4.58121C30.6085 4.56448 30.523 4.56448 30.4405 4.58121C30.4029 4.41795 30.4781 4.313 30.691 4.28967Z" fill="#E4E4E4"/>
<path d="M28.336 17.6421H32.4573C32.7956 18.0736 34.1485 17.164 33.8102 18.5051H25.8431C25.3921 18.5051 24.8911 18.5051 24.7408 17.9803C24.5904 17.4555 24.9913 17.5955 25.2794 17.5605C25.7428 17.8059 26.2638 17.9417 26.7968 17.956C27.3297 17.9702 27.8582 17.8624 28.336 17.6421Z" fill="#A8A8A8"/>
<path d="M33.8228 18.5283C33.8228 17.677 32.783 18.1318 32.4698 17.6653C33.8512 17.5171 35.2498 17.592 36.6037 17.8869C36.9044 18.505 37.5307 18.1318 38.0068 18.2717C38.4828 18.4117 38.6331 18.4233 38.5955 18.8315C36.967 19.0764 35.4012 18.5283 33.8228 18.5283Z" fill="#B3B3B3"/>
<path d="M28.336 17.6421C28.1503 17.8521 27.917 18.0213 27.6527 18.1374C27.3885 18.2536 27.0999 18.3138 26.8077 18.3138C26.5155 18.3138 26.2269 18.2536 25.9627 18.1374C25.6984 18.0213 25.4651 17.8521 25.2794 17.6421H28.336Z" fill="#969696"/>
<path d="M38.583 18.8316L37.894 18.5517C37.7186 18.3884 37.3804 18.2835 37.5683 17.9453H39.6102C39.9985 18.3884 39.6728 18.61 39.2845 18.8083L38.583 18.8316Z" fill="#B1B1B1"/>
<path d="M39.2845 18.8432L39.6102 17.9802C40.0361 17.9802 40.675 17.817 40.5497 18.47C40.4244 19.1231 39.748 18.8199 39.2845 18.8432Z" fill="#BCBCBC"/>
<path d="M37.5808 17.9453L37.9065 18.5517C37.5057 18.2601 36.4033 19.1697 36.6538 17.887L37.5808 17.9453Z" fill="#979797"/>
<path d="M133.274 10.9134L133.149 12.1962C133.025 12.3087 132.858 12.3717 132.685 12.3717C132.512 12.3717 132.346 12.3087 132.222 12.1962C132.216 12.103 132.216 12.0095 132.222 11.9163C132.222 11.5431 132.222 11.1816 132.222 10.8201C132.222 10.6452 132.297 10.4703 132.347 10.2954C132.923 10.1787 132.973 10.7035 133.262 10.9484V10.8784L133.274 10.9134Z" fill="#646464"/>
<path d="M129.829 13.4557C130.305 13.4557 130.456 13.1874 130.493 12.8143C130.844 13.2691 131.307 13.8755 130.694 14.237C130.08 14.5985 130.042 13.8172 129.829 13.4557Z" fill="#C4C4C4"/>
<path d="M133.136 10.9484C132.648 10.9484 132.522 10.5169 132.222 10.2954V9.66565H132.973C133.362 10.0272 133.124 10.5053 133.136 10.9484Z" fill="#2A2A2A"/>
<path d="M30.0647 4.91941C30.1495 4.8899 30.2429 4.8899 30.3277 4.91941C30.3586 4.9945 30.3586 5.07754 30.3277 5.15264C30.2223 5.13822 30.1229 5.09797 30.0396 5.03602L30.0647 4.91941Z" fill="black"/>
</g>
<defs>
<clipPath id="clip0">
<rect width="163" height="44.7452" fill="white" transform="translate(0 0.254761)"/>
</clipPath>
</defs>
</svg>
